<?xml version="1.0" encoding="UTF-8"?>
<svg id="Layer_1" data-name="Layer 1" xmlns="http://www.w3.org/2000/svg" viewBox="0 0 22.48 27.61">
  <path d="m21.76,9.41c-.16.12-2.99,1.72-2.99,5.26,0,4.1,3.6,5.55,3.71,5.58-.02.09-.57,1.99-1.9,3.92-1.18,1.7-2.42,3.4-4.29,3.4s-2.36-1.09-4.53-1.09-2.86,1.13-4.58,1.13-2.92-1.57-4.29-3.51c-1.6-2.27-2.89-5.8-2.89-9.14C0,9.59,3.49,6.75,6.93,6.75c1.83,0,3.35,1.2,4.49,1.2s2.79-1.27,4.87-1.27c.79,0,3.61.07,5.48,2.74h0Zm-6.46-5.01c.86-1.02,1.47-2.43,1.47-3.85,0-.2-.02-.39-.05-.56-1.4.05-3.06.93-4.06,2.09-.79.89-1.52,2.31-1.52,3.74,0,.22.04.43.05.5.09.02.23.04.38.04,1.25,0,2.83-.84,3.74-1.97h0Z"/>
</svg>