<?xml version="1.0" encoding="UTF-8"?>
<svg id="Layer_1" data-name="Layer 1" xmlns="http://www.w3.org/2000/svg" viewBox="0 0 46.69 38.32">
  <path d="m16.37,18.73c0-.6.49-1.08,1.08-1.08.6,0,1.08.49,1.08,1.08,0,.6-.48,1.08-1.08,1.08-.6,0-1.09-.49-1.09-1.08Zm2,0c.02-.48-.36-.89-.84-.91-.02,0-.04,0-.06,0-.53,0-.91.38-.91.91s.38.91.91.91.91-.38.91-.91Zm-1.16.61h-.16v-1.24h.53c.32,0,.43.12.43.34,0,.24-.17.33-.38.35l.37.55h-.18l-.35-.55h-.27v.55Zm.22-.69c.17,0,.41.03.41-.2,0-.17-.14-.2-.29-.2h-.34v.4h.22m17.9.08c0-.6.49-1.08,1.08-1.08.6,0,1.08.49,1.08,1.08,0,.6-.48,1.08-1.08,1.08-.6,0-1.08-.49-1.08-1.08Zm2,0c.02-.48-.36-.89-.84-.91-.02,0-.04,0-.07,0-.48-.02-.89.36-.91.84,0,.02,0,.04,0,.07,0,.53.38.91.91.91.49.02.89-.36.91-.85,0-.02,0-.04,0-.07Zm-1.16.61h-.16v-1.24h.53c.32,0,.43.12.43.34,0,.24-.17.33-.38.35l.37.55h-.18l-.35-.55h-.27v.55h0Zm.22-.69c.17,0,.41.03.41-.2,0-.17-.14-.2-.29-.2h-.34v.4h.22m-22.35,1.08v-5.41h5.41V5.67h-5.41V.26H5.41v5.41H0v8.65h5.41v5.41h8.62" fill="#00acec"/>
  <path d="m4.73,8.13l3.59.35c.67.09.75.75.57,1.14l-2.46,4.61h0c-1.29-1.02-2.05-2.57-2.05-4.21,0-.66.12-1.3.34-1.88h0m5.02-2.78c-.63,0-.83.72-.55,1.08.25.33.3.42.29.73-.01.26-.25.58-.79.59h-3.8c.88-1.88,2.77-3.08,4.84-3.08" fill="#fff"/>
  <path d="m5.27,8.92l2.71.25c.2.01.21.1.17.21l-1.9,3.63c-.72-.83-1.11-1.9-1.11-3,0-.38.04-.74.13-1.09m3.19-3.33c-.27.45-.05,1.04.2,1.32.05.05.02.1-.02.11h-2.4c.58-.68,1.35-1.18,2.22-1.43" fill="#00acec"/>
  <path d="m14.74,8.13l-3.59.35c-.67.09-.75.75-.57,1.14l2.46,4.61h0c1.29-1.02,2.05-2.57,2.05-4.21,0-.66-.12-1.3-.34-1.88h0m-5.02-2.78c.63,0,.83.72.55,1.08-.25.33-.3.42-.29.73.01.26.25.58.79.59h3.8c-.88-1.88-2.77-3.08-4.84-3.08" fill="#fff"/>
  <path d="m14.2,8.92l-2.71.25c-.2.01-.21.1-.17.21l1.9,3.63c.69-.81,1.11-1.85,1.11-3,0-.38-.04-.74-.13-1.09m-3.19-3.33c.27.45.05,1.04-.2,1.32-.05.05-.02.1.02.11h2.4c-.58-.68-1.35-1.18-2.22-1.43" fill="#00acec"/>
  <path d="m9.73,15.36c1.09,0,2.09-.32,2.94-.88h0s-2.61-3.89-2.61-3.89c-.18-.25-.47-.27-.67,0l-2.61,3.89h0c.84.55,1.85.88,2.94.88" fill="#fff"/>
  <path d="m30.21,19.94c3.74-2.06,6-5.35,7.17-8.96,1.21-3.74.99-8.21-.41-10.97-2.13,1.08-4.26,1.65-6.76,1.66-2.5,0-4.62-.6-6.76-1.67-1.4,2.76-1.62,7.24-.41,10.98,1.17,3.61,3.43,6.89,7.17,8.96" fill="#00acec"/>
  <path d="m30.2,18.27c3.08-1.9,4.71-4.63,5.76-7.71.93-2.74,1.16-5.94.13-8.43-1.54.53-2.44.69-3.27.82-.78.12-1.48.19-2.62.21h0c-.88,0-1.75-.07-2.62-.21-.84-.13-1.74-.29-3.27-.82-1.02,2.5-.8,5.7.14,8.43,1.05,3.08,2.69,5.81,5.76,7.71h0" fill="#fff"/>
  <path d="m30.2,17.51c2.08-1.31,4.44-4.28,5.38-8.18.5-2.07.64-4.4-.01-6.25-.93.25-1.8.45-2.7.58s-1.79.21-2.66.21h0c-.89-.02-1.78-.09-2.66-.21-.9-.12-1.77-.33-2.7-.58-.65,1.85-.51,4.18-.01,6.25.94,3.91,3.3,6.87,5.38,8.18h0" fill="#00acec"/>
  <path d="m30.67,10.42l.04-1.47s-.21-.09-.52-.11c-.4-.03-.57-.04-.57-.04v.13s-.21.05-.24.11c-.01.02-.05.06,0,.15.21.39.34.58.44,1.11.31.04.52.08.85.14" fill="#fff"/>
  <path d="m28.35,10.18c-.04.67.46,1.08,1.16,1.19.76.11,1.2.16,1.41.21.06.02.1.08.12.14.01.07,0,.11-.04.15-.04.05-.1.07-.1.07l-.02.81s.27-.01.54-.17c.25-.15.4-.34.46-.58.06-.28.02-.5-.18-.77-.13-.18-.36-.31-.59-.39-.35-.12-1-.2-1.5-.27-.08,0-.2-.06-.21-.17-.01-.12.14-.15.14-.15,0,0-.04-.12-.1-.3-.07-.17-.16-.34-.25-.51-.33.15-.81.28-.84.73" fill="#fff"/>
  <path d="m30.63,11.79l-.03,1.33-.62-.31-.07-1.1c.32.04.44.05.71.08" fill="#fff"/>
  <path d="m29,12.53c-.2.47-.02.9.47,1.11.21.09.5.18.73.26.22.08.62.35.65.47.02.07-.05.13-.05.13l-.02.57s.21-.05.38-.19c.18-.14.29-.36.28-.59,0-.31-.15-.5-.59-.76-.34-.2-.81-.39-1.13-.53-.03-.01-.13-.08-.1-.19.02-.06.08-.08.08-.08l-.05-.67s-.17.05-.29.12c-.11.06-.3.18-.38.35" fill="#fff"/>
  <path d="m30.59,14.48s-.01-.05-.04-.08c-.07-.07-.15-.14-.24-.19-.1-.06-.32-.13-.32-.13,0,0,.03,1.44.06,2.21,0,.17.08.23.24.23.2,0,.24-.09.24-.19,0-.24.04-1.28.05-1.84m.22-9.55c.07.05.08.07.1.18.05.24-.04.58,0,.75.02.05.08.05.12.03.33-.18.55-.48.88-.62.16-.07.6.16.5.48-.05.15-.08.15-.19.24-.21.19-.48.39-.76.65-.17.17-.34.26-.46.46-.03.05-.09.17-.09.17-.46-.1-.93-.1-1.29-.18l-.02-.39s.46,0,.51-.28c0-.01,0-.1-.06-.14-.07-.05-.15-.08-.23-.11.35.05.66.18,1.02.34.02-.04-.04-.17-.06-.2-.05-.06-.11-.1-.23-.13-.22-.06-.75-.12-.75-.12l.45-.02c.11-.02.23-.06.25-.1.04-.1-.13-.25-.23-.39-.05-.07-.12-.21-.22-.3-.12-.14-.47-.27-.47-.27,0,0-.03-.24.03-.35.04-.09.23-.09.29-.07.26.15.56.31.91.37" fill="#fff"/>
  <path d="m32.33,8.62c-.07-.35-.43-.68-.74-.84-.82-.42-1.71-.27-2.55-.54-.24-.08-.53-.19-.59-.46-.04-.17-.04-.35.09-.42.19-.11.33.07.64.14.19.05.4.04.55,0,.07-.02.16-.04.17-.09,0-.05-.11-.08-.15-.1-.1-.05-.18-.05-.28-.09-.17-.06-.35-.18-.52-.28.16-.03.43-.04.59-.02.13.01.52,0,.64-.02.03,0,.08-.03.06-.07-.05-.08-.12-.11-.18-.18-.12-.16-.21-.32-.4-.39-.54-.21-1.14-.26-1.67.02-.72.39-1.01,1.27-.67,2.01.29.59.84.9,1.5,1.06.32.08.59.13.94.16.4.04.75.06,1.13.16.08.02.22.08.26.16.07.15.03.33-.16.4,0,.34-.05,1.03-.05,1.03,0,0,1.65-.17,1.38-1.63h0Zm-2.61-3.14s-.07-.02-.11-.01c-.07.05-.12.1-.19.11-.15.03-.13-.11-.23-.18-.06-.04-.12.01-.18-.09.22,0,.55,0,.72.18h0Z" fill="#fff"/>
  <path d="m9.66,11.47c.04-.05.1-.06.15,0l1.8,2.75c-.59.26-1.23.4-1.87.4-.65,0-1.28-.13-1.87-.4l1.8-2.75c.05-.06.11-.05.15,0" fill="#00acec"/>
  <path d="m29.61,14.96c-.09.09-.27.27-.24.64.02.24.08.31.16.47.06.11.15.16.19,0,.02-.1-.06-.18-.04-.38.03-.2.13-.24.13-.24l-.03-.63c-.07.04-.13.08-.18.14" fill="#fff"/>
  <path d="m4.51,25.19h3.15c.32,0,.67.02.99.17.6.29.62.89.62,1.02,0,.32-.12.62-.34.84-.37.39-.87.45-1.22.48.39.02,1.02.05,1.5.54.19.18.42.51.42,1.03,0,.36-.12.75-.42,1.05-.45.45-1.03.47-1.52.48h-3.18v-.21h.77v-5.19h-.77v-.2h0Zm2.03.24l-.02,2.17h.52c.35,0,.63-.11.74-.25.13-.16.21-.42.21-.83,0-.9-.28-1.06-.89-1.08h-.56Zm-.02,2.4l.02,2.74h.6c.28-.01.57-.04.83-.28.33-.33.33-.91.33-1.1,0-.61-.13-.94-.38-1.13-.18-.14-.5-.23-.98-.22h-.41m4.4-2.63c.37,0,.48,0,.83-.03v5.43h.55v.21h-2.32v-.21h.6v-5.19h-.6v-.21h.94m2.17,1.76c.41,0,.54,0,.93-.03l-.02,2.52c0,.3.02.53.08.69.1.25.32.36.58.36.23,0,.43-.09.58-.23.31-.31.3-.72.3-1.07l-.02-2.03h-.59v-.21s1.14,0,1.74-.03v3.66h.57v.22h-.6c-.51,0-.69,0-1.07.03l-.03-.61c-.17.21-.55.67-1.45.67-.59,0-.96-.22-1.11-.52-.12-.22-.11-.51-.11-.75l-.02-2.45h-.58v-.21h.81m8.18,2.73c-.21.39-.63,1.2-1.84,1.2s-1.99-.94-1.99-2.05.72-1.99,1.99-1.99c.79,0,1.23.34,1.42.54.44.45.45.93.46,1.27h-2.65c0,.67.02,1.29.36,1.64.18.19.44.27.71.27.86,0,1.18-.72,1.3-.98l.24.1h0Zm-1.16-1.27c0-.62.01-1.35-.7-1.35-.68,0-.71.68-.73,1.35h1.43m6.87,1.98c-.59.21-1.32.48-2.23.48-1.64,0-2.85-1.18-2.85-2.89,0-1.85,1.4-2.92,2.98-2.92.48,0,1.23.11,2.07.48v1.58h-.25c-.04-.3-.1-.79-.59-1.28-.31-.32-.73-.5-1.18-.51-.42,0-.84.18-1.12.45-.4.4-.57,1.03-.57,2.19s.13,1.81.55,2.23c.23.24.6.43,1.03.43s.92-.17,1.33-.6c.48-.49.53-.91.56-1.22h.26v1.57m2.19.19h.59v.21h-2.33v-.21h.58v-3.43h-.58v-.21s1.25,0,1.71-.03l.02.78c.05-.19.15-.36.29-.5.19-.2.45-.32.73-.32.51,0,.72.4.72.76,0,.48-.32.56-.49.56-.08,0-.49-.04-.49-.52,0-.04.03-.24.03-.28,0-.17-.12-.17-.14-.17-.1,0-.25.13-.35.29-.26.42-.28,1.04-.29,1.48l.02,1.59m5.99-1.7c0,1.26-1,1.99-2.07,1.99-1.17,0-2.02-.84-2.02-2.02,0-1.25.91-1.99,2-2.01,1.29-.02,2.09.89,2.09,2.04Zm-2.88-.19c0,1.25.08,1.96.84,1.96s.83-.72.83-1.77c0-.96-.05-1.84-.83-1.83-.74,0-.84.76-.84,1.65m3.71.64c.03.23.06.42.18.66.13.25.45.65,1.02.65.47,0,.78-.26.78-.58,0-.36-.35-.5-.86-.68-.71-.26-1.3-.48-1.3-1.32,0-1,.87-1.23,1.42-1.23.44,0,.79.13,1.17.25l.02,1.03h-.24c-.02-.15-.06-.29-.12-.43-.1-.21-.4-.59-.91-.59-.43,0-.62.28-.62.48,0,.24.21.35.29.39.13.06.75.29.9.34.48.2.99.47.99,1.2,0,.83-.65,1.38-1.6,1.38-.53,0-.92-.14-1.33-.29l-.02-1.26h.25m3.47,0c.03.23.05.42.18.66.13.25.45.65,1.02.65.47,0,.78-.26.78-.58,0-.36-.35-.5-.86-.68-.71-.26-1.3-.48-1.3-1.32,0-1,.87-1.23,1.42-1.23.44,0,.79.13,1.17.25l.02,1.03h-.24c-.02-.15-.06-.29-.12-.43-.1-.21-.4-.59-.91-.59-.43,0-.62.28-.62.48,0,.24.21.35.29.39.13.06.76.29.9.34.48.2.98.47.98,1.2,0,.83-.65,1.38-1.6,1.38-.53,0-.92-.14-1.34-.29l-.02-1.26h.25m-34.95,3.3h3.15c.32,0,.67.02.99.17.6.3.62.89.62,1.02,0,.32-.12.62-.34.84-.37.39-.87.45-1.22.48.39.02,1.02.05,1.5.54.19.18.42.51.42,1.03,0,.37-.12.75-.42,1.05-.45.45-1.02.47-1.52.48h-3.18v-.21h.77v-5.19h-.77v-.2h0Zm2.03.24l-.02,2.17h.52c.35,0,.63-.11.74-.25.13-.16.21-.42.21-.83,0-.9-.28-1.07-.89-1.08h-.56Zm-.02,2.4l.02,2.74h.6c.28-.02.57-.04.83-.29.33-.33.33-.91.33-1.1,0-.61-.13-.94-.38-1.13-.18-.14-.5-.23-.98-.22h-.41m4.4-2.64c.37,0,.48,0,.83-.03v5.43h.55v.21h-2.32v-.21h.6v-5.19h-.6v-.21h.94m2.17,1.76c.41,0,.54,0,.93-.03l-.02,2.52c0,.3.02.53.08.69.1.25.32.36.58.36.22,0,.42-.08.58-.23.31-.31.3-.72.3-1.07l-.02-2.03h-.59v-.21s1.14,0,1.74-.03v3.66h.57v.21h-.6c-.51,0-.69,0-1.07.03l-.02-.61c-.17.21-.56.67-1.45.67-.59,0-.96-.22-1.11-.52-.12-.22-.11-.51-.11-.75l-.02-2.45h-.58v-.21h.81m8.1,2.73c-.21.39-.64,1.2-1.83,1.2s-1.99-.95-1.99-2.05.71-1.99,1.99-1.99c.79,0,1.23.34,1.42.54.44.45.45.93.46,1.27h-2.65c0,.68.02,1.29.36,1.64.19.18.44.28.71.27.86,0,1.18-.72,1.29-.98l.24.1h0Zm-1.16-1.27c0-.62.02-1.35-.7-1.35-.67,0-.71.68-.73,1.35h1.43m2.02.47c.04.23.08.44.21.72.48.98,1.34,1.01,1.52,1.01.63,0,1.16-.37,1.16-.95s-.44-.77-1.64-1.26c-.19-.08-.37-.15-.55-.25-.21-.11-.89-.51-.89-1.42,0-.98.78-1.64,1.89-1.64.69,0,1.23.23,1.52.35l.08,1.34h-.25c-.11-.41-.18-.64-.45-.92-.28-.29-.64-.49-1.04-.49-.6,0-.92.41-.92.82,0,.51.46.72.67.82.27.13.54.22.81.33.69.28,1.56.69,1.56,1.78,0,1.03-.8,1.78-2.14,1.78-.68,0-1.21-.19-1.72-.37l-.05-1.63h.24m4.83-3.69c.41,0,.5,0,.86-.03l-.02,2.37c.15-.24.3-.46.75-.6.19-.06.38-.09.58-.09.59,0,.87.23,1,.35.29.29.32.64.33.95l.02,2.45h.55v.21h-2.33v-.21h.61l.02-2.46c0-.31,0-.93-.62-.93-.22,0-.44.09-.59.25-.27.27-.29.63-.32,1.09l.02,2.05h.6v.21h-2.32v-.21h.58v-5.19h-.58v-.21h.87m5.97,1.73v3.67h.55v.21h-2.32v-.21h.6v-3.43h-.6v-.21s1.22,0,1.77-.03h0Zm-1.25-1.14c0-.34.29-.63.64-.63s.62.28.62.63-.28.63-.62.63c-.34-.01-.62-.28-.64-.63m5.87,3.91c-.21.39-.63,1.2-1.83,1.2s-1.99-.95-1.99-2.05.71-1.99,1.99-1.99c.79,0,1.23.34,1.42.54.44.45.45.93.46,1.27h-2.65c0,.68.02,1.29.36,1.64.19.18.44.28.71.27.86,0,1.18-.72,1.29-.98l.24.1Zm-1.16-1.27c0-.62.01-1.35-.7-1.35-.68,0-.71.68-.73,1.35h1.43m2.39-3.22c.37,0,.48,0,.83-.03v5.43h.55v.21h-2.32v-.21h.6v-5.19h-.6v-.21h.94m4.62,0c.46,0,.61,0,.96-.03v5.42h.56v.21s-1.19,0-1.71.03v-.53c-.18.23-.47.58-1.21.58-1.19,0-1.67-1.08-1.67-1.95,0-1.25.75-2.05,1.77-2.05.49,0,.75.16.94.34.08.07.14.16.17.26l-.02-2.09h-.59v-.21h.79Zm-1.54,2.22c-.23.24-.27.71-.27,1.45,0,.91.02,1.68.76,1.68.23,0,.45-.09.61-.25.21-.22.28-.5.28-1.5,0-.72,0-1.59-.84-1.58-.2,0-.39.07-.53.21m.19-8.41c0-.6.49-1.08,1.09-1.08.6,0,1.08.49,1.08,1.09,0,.6-.48,1.08-1.08,1.08-.6,0-1.09-.49-1.09-1.09Zm2,0c.02-.48-.36-.89-.84-.91-.02,0-.04,0-.07,0-.49-.02-.9.36-.92.85,0,.02,0,.04,0,.06,0,.53.38.91.92.91s.91-.38.91-.91Zm-1.16.61h-.16v-1.24h.53c.32,0,.43.12.43.34,0,.24-.17.33-.38.35l.37.55h-.18l-.35-.55h-.27v.55h0Zm.22-.69c.17,0,.42.03.42-.21,0-.17-.14-.2-.29-.2h-.34v.4h.22m1.47,7.21c0-.6.49-1.08,1.09-1.08.6,0,1.08.49,1.08,1.09,0,.6-.49,1.08-1.08,1.08-.6,0-1.09-.49-1.09-1.09Zm2,0c.02-.48-.36-.89-.84-.91-.02,0-.04,0-.06,0-.53,0-.92.38-.92.91s.38.92.92.92.91-.38.91-.92Zm-1.16.62h-.16v-1.24h.53c.32,0,.43.12.43.34,0,.24-.17.33-.38.35l.37.55h-.18l-.35-.55h-.27v.55h0Zm.22-.7c.17,0,.42.03.42-.2,0-.17-.14-.2-.29-.2h-.34v.4h.22"/>
</svg>