<?xml version="1.0" encoding="UTF-8"?>
<svg id="Layer_1" data-name="Layer 1" xmlns="http://www.w3.org/2000/svg" viewBox="0 0 42.92 9.57">
  <path id="path3676" d="m41.24,5.73c.94,0,1.67-.77,1.68-1.68-.07-.4-.21-1.13-1.23-1.13-1.13,0-1.5,1.57-2.42,2.59-.07.58-.62,1.09-1.3,1.18.17.17.54.27.98.27.81,0,1.8-.24,2.31-.75-.69,0-1.13-.43-1.17-1.04.34.41.71.56,1.16.56" fill="#12abdb" fill-rule="evenodd"/>
  <path id="path3678" d="m34.02,3.22c0-.5-.03-.83-.36-.83-.15,0-.22.03-.35.07.12,1.69-.27,3.18-.73,3.18-.61,0-.31-3.62-1.6-3.62-1.19,0-1.37,2.89-1.5,2.89-.09,0-.11-.76-.1-1.34.05-.28.08-.53.08-.72,0-.27-.11-.73-.72-.5.02,2.07-.39,3.32-.86,3.32-.68,0-.69-1.88-.69-2.39s.04-1.18-.71-.94c-.11,1.8-.59,3.17-.88,3.17-.44,0-.35-3.12-1.32-3.12-.86,0-1.13,2.95-1.31,2.95-.32,0,.1-3.32-1.15-3.32-.65,0-.91,1.11-1.17,2.35-.05.24-.1.25-.11-.02,0-.23,0-.46,0-.7.31-1.25-.07-1.71-.65-1.38.19,2.3-.87,3.43-1.68,3.43-.29,0-.52-.12-.7-.32.97-.6,1.4-1.28,1.4-1.95,0-.72-.42-1.14-1.11-1.14-.96,0-1.5.99-1.5,1.84,0,.45.09.84.22,1.16-.33.16-.64.29-.93.43-.03-.87-.12-1.78-.2-2.62-.51-.14-.66.1-.7.56-.09,1.04-.48,1.69-.82,1.69-.26,0-.41-.31-.43-.65-.1-1.67,1.26-2.14,1.97-1.9.15-.37-.01-.63-.66-.63-.78,0-1.36.47-1.78,1.08-.28.4-.61.69-1.05,1.04.01-.1.02-.2.02-.3,0-1.18-.64-1.7-1.25-1.7-.5,0-.82.3-1.01.77-.04-.47-.14-.67-.41-.67-.12,0-.28.03-.45.12.08.26.11.84.11,1.22,0,1.42-.41,2.05-.8,2.05-.45,0-.52-1.68-.56-2.34-.07-.03-.14-.04-.22-.04-.4,0-.46.54-.56,1.04-.11.55-.43,1.25-.9,1.25-.29,0-.46-.27-.49-.77-.05-1,.79-2.19,2.09-1.82.17-.4-.1-.7-.64-.7-.95,0-1.74.71-2.09,1.56-.35.78-.96,1.91-2.2,1.91-.88,0-1.55-.77-1.55-2.37,0-1.39.87-2.7,1.81-2.7.65,0,.8.64.75,1.24.34.27.89.02.89-.66,0-.47-.38-1.26-1.6-1.26-1.51,0-2.85,1.51-2.85,3.49s.98,3.06,2.36,3.06c.87,0,1.69-.5,2.26-1.41.14.8.69,1.14,1.1,1.14.66,0,1.1-.43,1.33-1.01.15.58.46,1.01.98,1.01.36,0,.65-.19.86-.48-.09,2.02-.19,3.31,1,3.06-.19-.58-.24-1.62-.24-2.56,0-2.57.42-3.42.96-3.42.39,0,.51.49.51,1.02,0,.28-.03.6-.1.9-.65.41-1.18.74-1.18,1.15,0,.33.24.36.45.36.5,0,1.11-.49,1.44-1.42.29-.18.58-.38.86-.66,0,.09-.01.19-.01.29,0,.92.4,1.48,1.05,1.48.51,0,.88-.36,1.15-.9.02.31.03.6.03.86-1.03.47-2.16.96-2.16,2.29,0,.69.5,1.21,1.15,1.21,1.43,0,1.75-1.51,1.77-3.26.47-.2.81-.36,1.21-.55.34.43.81.64,1.23.64.81,0,1.41-.43,1.9-1.29.09.66.26,1.29.61,1.29.64,0,.77-3.34,1.24-3.34.36,0,.07,3.61,1.03,3.61.82,0,.98-3.18,1.38-3.18.28,0,.3,2.91,1.2,2.91.44,0,.92-.53,1.16-1.64.11.74.49,1.64,1.21,1.64.42,0,.79-.43,1.07-1,.08.59.24,1,.57,1,.84,0,.81-3.33,1.47-3.33.52,0,.36,3.33,1.59,3.33.58,0,.86-.5,1.03-1.13.23.92.59,1.13.89,1.13.19,0,.34-.07.52-.29-.95-.41-.87-1.91-.87-2.88m-20.15,5.73c-.3,0-.45-.28-.45-.6,0-.86.63-1.31,1.4-1.7-.03,1.87-.47,2.3-.95,2.3m3.84-6.06c.29,0,.45.26.42.64-.03.45-.36.96-.92,1.36-.29-.84-.07-2,.5-2m9.12-1.26c.27,0,.47-.24.47-.52,0-.28-.19-.5-.46-.49-.27,0-.5.24-.5.52,0,.28.22.5.5.49m6.82.14c.25,0,.45-.23.45-.5s-.2-.48-.45-.47c-.25,0-.45.23-.45.5,0,.27.2.48.45.47m9.27,2.22c-.02-1.06-.52-1.95-1.3-2.66-.59-.54-1.29-.95-2.02-1.25-.06-.02-.12-.05-.18-.07-.9,1.08-4.03,1.89-4.03,4.16,0,.89.56,1.71,1.38,2.05.48.18.95.19,1.43.03.42-.14.77-.4,1.06-.72.92-1.02,1.29-2.59,2.42-2.59,1.03,0,1.17.73,1.24,1.13,0,0,0-.03,0-.07" fill="#0070ad" fill-rule="evenodd"/>
</svg>