<?xml version="1.0" encoding="UTF-8"?>
<svg id="Layer_1" data-name="Layer 1" xmlns="http://www.w3.org/2000/svg" viewBox="0 0 43.27 6.15">
  <path d="m5.84,2.21v-.58s.15-1.63-2.89-1.63C.13,0,0,1.63,0,1.63v2.9s.24,1.61,2.95,1.61c2.31,0,2.89-1.15,2.89-1.15v-2.07h-2.89v.78h1.36v1.29s-.07.37-1.36.37c-1.51,0-1.43-.83-1.43-.83V1.63s-.08-.88,1.43-.88,1.36.88,1.36.88v.58h1.53" fill="#005596"/>
  <path d="m11.17,2.04v3.92h1.23v-3.04s0-.5,1-.5,1.01.49,1.01.49v3.05h1.23v-3.18s-.05-1.04-2.24-1.04c-.75,0-1.25.12-1.58.28h0s-.66,0-.66,0" fill="#005596"/>
  <path d="m20.95,2.04v3.92h1.23v-3.04s0-.5,1-.5,1.01.49,1.01.49v3.05h1.23v-3.18s-.05-1.04-2.24-1.04c-.75,0-1.25.12-1.58.28h0s-.66,0-.66,0" fill="#005596"/>
  <path d="m33.4,4.27h-3.24s0,.73,0,.73c0,0,0,.5,1.01.5s1.01-.5,1.01-.5v-.33s1.23,0,1.23,0v.32s.09,1.15-2.24,1.15-2.23-1.15-2.23-1.15v-2.01s-.09-1.15,2.23-1.15,2.24,1.16,2.24,1.16c0,0,0,1.28,0,1.28Zm-3.25-1.27v.45h2.01s0-.45,0-.45c0,0,0-.51-1.01-.51-1,0-1,.51-1,.51" fill="#005596"/>
  <path d="m38.31,3.53v-.54s.1-1.16-2.24-1.16-2.23,1.15-2.23,1.15v2.01s-.1,1.15,2.23,1.15,2.24-1.15,2.24-1.15v-.5h-1.23v.5s0,.5-1.01.5-1-.5-1-.5c0,0,0-1.99,0-1.99,0,0,.02-.51,1.05-.51.98,0,.96.5.96.5v.53h1.23" fill="#005596"/>
  <path d="m25.71,1.97h.39v-.94h1.23v.94h1.35v.66h-1.35v2.41s.07.61,1.29.44c0,0,0,.6,0,.6-1.06.14-2.52.03-2.52-1.04v-2.41h-.39v-.66" fill="#005596"/>
  <path d="m38.79.05s1.23.01,1.23,0c0,0,0,1.8,0,1.8.27-.06.6-.09,1-.09,2.19,0,2.24,1.04,2.24,1.04v3.18h-1.23v-3.05s0-.49-1.01-.49-1,.5-1,.5v3.04h-1.23V.05" fill="#005596"/>
  <path d="m20.54,4.27h-3.24s0,.73,0,.73c0,0,0,.5,1.01.5s1.01-.5,1.01-.5v-.33s1.23,0,1.23,0v.32s.09,1.15-2.24,1.15-2.23-1.15-2.23-1.15v-2.01s-.09-1.15,2.23-1.15,2.24,1.16,2.24,1.16c0,0,0,1.28,0,1.28Zm-3.25-1.27v.45h2.01s0-.45,0-.45c0,0,0-.51-1.01-.51-1,0-1,.51-1,.51" fill="#005596"/>
  <path d="m10.76,4.27h-3.24s0,.73,0,.73c0,0,0,.5,1,.5s1.01-.5,1.01-.5v-.33s1.23,0,1.23,0v.32s.09,1.15-2.24,1.15-2.23-1.15-2.23-1.15v-2.01s-.09-1.15,2.23-1.15,2.24,1.16,2.24,1.16v1.28Zm-3.25-1.27v.45h2.01s0-.45,0-.45c0,0,0-.51-1.02-.51-1,0-1,.51-1,.51" fill="#005596"/>
</svg>