<?xml version="1.0" encoding="UTF-8"?>
<svg id="Layer_1" data-name="Layer 1" xmlns="http://www.w3.org/2000/svg" viewBox="0 0 39.65 13.05">
  <path d="m16.97,6.87c0,1.88-1.47,3.26-3.27,3.26s-3.27-1.38-3.27-3.26,1.47-3.26,3.27-3.26,3.27,1.37,3.27,3.26Zm-1.43,0c0-1.17-.85-1.98-1.84-1.98s-1.84.8-1.84,1.98.85,1.98,1.84,1.98,1.84-.82,1.84-1.98Z" fill="#ea4335"/>
  <path d="m24.02,6.87c0,1.88-1.47,3.26-3.27,3.26s-3.27-1.38-3.27-3.26,1.47-3.26,3.27-3.26,3.27,1.37,3.27,3.26Zm-1.43,0c0-1.17-.85-1.98-1.84-1.98s-1.84.8-1.84,1.98.85,1.98,1.84,1.98,1.84-.82,1.84-1.98Z" fill="#fbbc05"/>
  <path d="m30.79,3.8v5.86c0,2.41-1.42,3.39-3.1,3.39-1.58,0-2.53-1.06-2.89-1.92l1.25-.52c.22.53.77,1.16,1.64,1.16,1.07,0,1.74-.66,1.74-1.91v-.47h-.05c-.32.4-.94.74-1.72.74-1.63,0-3.12-1.42-3.12-3.25s1.49-3.27,3.12-3.27c.78,0,1.4.35,1.72.73h.05v-.53h1.36Zm-1.26,3.08c0-1.15-.77-1.99-1.74-1.99s-1.82.84-1.82,1.99.83,1.96,1.82,1.96,1.74-.83,1.74-1.96Z" fill="#4285f4"/>
  <path d="m33.03.37v9.56h-1.4V.37h1.4Z" fill="#34a853"/>
  <path d="m38.47,7.94l1.11.74c-.36.53-1.22,1.45-2.72,1.45-1.85,0-3.24-1.43-3.24-3.26,0-1.94,1.4-3.26,3.08-3.26s2.52,1.35,2.79,2.07l.15.37-4.36,1.81c.33.65.85.99,1.58.99s1.24-.36,1.61-.9h0Zm-3.42-1.17l2.91-1.21c-.16-.41-.64-.69-1.21-.69-.73,0-1.74.64-1.7,1.9Z" fill="#ea4335"/>
  <path d="m5.14,6.02v-1.38h4.66c.05.24.07.53.07.84,0,1.04-.28,2.32-1.2,3.24-.89.93-2.03,1.42-3.53,1.42-2.79,0-5.14-2.27-5.14-5.06S2.35,0,5.14,0c1.54,0,2.64.61,3.47,1.4l-.98.98c-.59-.56-1.4-.99-2.5-.99-2.04,0-3.63,1.64-3.63,3.68s1.59,3.68,3.63,3.68c1.32,0,2.07-.53,2.56-1.01.39-.39.65-.95.75-1.71h-3.31Z" fill="#4285f4"/>
</svg>