<?xml version="1.0" encoding="UTF-8"?>
<svg id="Layer_1" data-name="Layer 1" xmlns="http://www.w3.org/2000/svg" viewBox="0 0 44.81 7.12">
  <path d="m38.41,6.97h-.37c-.07,0-.15-.07-.15-.15V.25c0-.07,0-.15.07-.17.07-.05.25-.05.37-.05h.44c.56,0,1.03.47,1.03,1.03v2.5l1.57-1.6c.32-.29,1.45-1.45,1.45-1.45.27-.29.66-.49,1.13-.49h.27c.2,0,.34.05.44.2.02.05.1.12.12.22.02.12.02.25.02.25,0,.32-.12.61-.34.86l-1.72,1.74c-.47.44-.07.91-.07.91.2.2.59.47.93.59l.42.17c.49.22.79.69.79,1.18v.71c0,.1-.05.17-.15.17h-.29c-.39,0-.86-.22-.86-.22l-1.94-.81c-.2-.1-.42-.17-.66-.2-.07-.02-.15-.02-.22-.02h-.15c-.22.02-.42.12-.56.27-.25.25-.44.44-.44.44-.27.27-.66.49-1.13.49h0Zm-8.2-.83s.1.1.2.17v.49c0,.12-.07.2-.17.2h-1.52c-.25,0-.49-.07-.71-.25l-2.31-1.82c-.15-.12-.25-.37-.25-.61v-.74c0-.12.05-.2.12-.2s.2.05.25.07c.12.02.27.07.27.07.22.07.47.12.69.12.49,0,.86-.2.98-.54.1-.32-.2-1.03-1.25-1.3-.81-.2-1.52-.05-1.74.34,0,0-.02.05-.05.12s-.02.15-.02.2v2.85c0,.44-.07.83-.34,1.18-.15.2-.34.37-.59.44-.17.05-.34.07-.49.07-.12,0-.29,0-.39-.05-.07-.02-.07-.1-.07-.17V.2c0-.07.07-.15.15-.15h2.8c.47,0,.93.1,1.4.25.49.15.91.37,1.3.64.39.27.69.59.93.96.25.37.37.76.37,1.18,0,.44-.15.79-.39,1.08-.42.44-.86.64-.98.71.1.1.39.32.76.61.71.56,1.08.66,1.08.66h0Zm-9.18-.96c.34,0,.61.1.81.34.2.2.29.44.29.79v.59c0,.07-.07.15-.15.15h-2.87c-.54,0-1.06-.1-1.52-.32-.49-.22-.91-.49-1.25-.86s-.64-.79-.83-1.25c-.22-.49-.32-.98-.32-1.52V.22c0-.07.07-.15.15-.15h2.87c.52,0,1.03.1,1.5.32.47.2.88.49,1.25.83s.64.74.86,1.15c.22.42.32.81.32,1.2,0,.25-.05.42-.17.59-.12.17-.37.27-.71.27h-1.96c-.83,0-1.25-.61-1.33-.79-.1-.17-.12-.32-.12-.54,0-.12.07-.17.2-.17h2.11c-.25-.29-.56-.59-.88-.79-.22-.12-.44-.22-.66-.27-.12-.02-.25-.05-.39-.05s-.27.02-.39.05c-.07,0-.2.05-.29.1-.1.05-.2.12-.22.15-.22.2-.32.47-.32.83,0,.29.05.56.15.83.12.27.25.52.44.71.1.1.42.39.64.49.27.1.52.17.81.17h2.01ZM14.53,1.06v5.72c0,.1-.07.2-.2.2h-.66c-.56,0-1.03-.47-1.03-1.03v-1.23c0-.52-.44-.96-.96-.96-.98,0-1.67.83-2.31,1.4-.79.69-1.37,1.35-2.11,1.35s-1.33-.66-2.11-1.35c-.64-.56-1.33-1.4-2.31-1.4-.52,0-.96.44-.96.98v2.04c0,.1-.07.2-.2.2h-.66c-.56,0-1.03-.47-1.03-1.03V.22C0,.12.1.02.2,0h1.3c.47,0,.91.2,1.2.49.02.02,1.62,1.52,1.62,1.52.76.76,1.79,1.18,2.94,1.18s2.11-.39,2.85-1.08L12.27.07s.1-.05.15-.05h1.08c.56,0,1.03.47,1.03,1.03Zm22.6,3.02c.1,0,.15.05.07.2-.02.39-.12.79-.27,1.13-.15.37-.34.66-.61.91-.25.25-.56.44-.91.59-.37.15-.74.22-1.15.22-.52,0-1.01-.12-1.5-.34-.47-.22-.91-.52-1.28-.88-.37-.39-.66-.81-.88-1.3-.22-.49-.32-1.01-.32-1.55V.22c0-.12.07-.2.17-.2h2.82c.52,0,.98.1,1.45.29.47.2.88.49,1.28.83.05.05.07.1.1.12,0,.05,0,.07-.05.12l-.71.71c-.17.17-.34.27-.52.27s-.32-.07-.47-.17c-.34-.27-.69-.39-1.06-.39-.32,0-.59.1-.79.32-.22.22-.32.49-.32.83,0,.27.07.54.2.81.12.27.29.52.49.74s.44.39.69.54.49.22.74.22c.27,0,.47-.07.64-.2.17-.12.29-.29.37-.52.12-.32.37-.49.76-.49h1.06Z" fill="#eb3c96"/>
</svg>