<?xml version="1.0" encoding="UTF-8"?>
<svg id="Layer_1" data-name="Layer 1" xmlns="http://www.w3.org/2000/svg" viewBox="0 0 38.37 5.59">
  <g id="g10">
    <g id="g12">
      <path id="path14" d="m5.82.06v1.15h1.76v4.32h1.24V1.21h1.76V.06h-4.75Z" fill="#6485c1"/>
      <path id="path16" d="m26.28.06h-3.13v1.16h3.05c.45,0,.62.2.62.73v.2h-2.53c-.96,0-1.44.48-1.44,1.57v.26c0,1.12.5,1.56,1.49,1.56h3.7V1.93c0-1.38-.46-1.88-1.77-1.88m-1.8,4.3c-.19,0-.4-.09-.4-.56s.21-.55.4-.55h2.34v1.12h-2.34Z" fill="#6485c1"/>
      <path id="path18" d="m36.6.06h-3.13v1.16h3.05c.45,0,.62.2.62.73v.2h-2.52c-.96,0-1.44.48-1.44,1.57v.26c0,1.12.5,1.56,1.49,1.56h3.7V1.93c0-1.38-.46-1.88-1.77-1.88m-1.8,4.3c-.19,0-.4-.09-.4-.56s.21-.55.4-.55h2.34v1.12h-2.34Z" fill="#6485c1"/>
      <path id="path20" d="m10.97.06v1.15h1.76v4.32h1.25V1.21h1.76V.06h-4.76Z" fill="#6485c1"/>
      <path id="path22" d="m28.3.06v1.15h1.76v4.32h1.24V1.21h1.76V.06h-4.75Z" fill="#6485c1"/>
      <path id="path24" d="m22.37,3.61v-1.64c0-1.43-.55-1.92-1.81-1.92h-3.33v5.47h3.39c1.33,0,1.75-.66,1.75-1.92m-1.27.03c0,.52-.18.73-.62.73h-2V1.22h2c.45,0,.62.2.62.73v1.69Z" fill="#6485c1"/>
      <path id="path26" d="m4.06,4.23S2.38.94,2.17.62c-.23-.37-.52-.62-1.06-.62C.6,0,0,.22,0,1.44v4.09h1.22v-3.41c0-.24-.01-.61-.02-.68,0-.06,0-.12.03-.13.03-.02.07.01.09.06.02.05,1.56,3.09,1.89,3.61.23.37.52.62,1.06.62.51,0,1.11-.23,1.11-1.44V.06h-1.22v3.41c0,.25.01.61.02.68,0,.06,0,.12-.03.13-.04.02-.07-.01-.1-.06" fill="#6485c1"/>
    </g>
  </g>
</svg>