<?xml version="1.0" encoding="UTF-8"?>
<svg id="Layer_1" data-name="Layer 1" xmlns="http://www.w3.org/2000/svg" viewBox="0 0 42.12 9.17">
  <g>
    <path d="m8.6,9.16s-.05,0-.07-.01c-.04-.02-.06-.05-.07-.09-.01-.04,0-.09.04-.14h0s.02-.04.04-.06.03-.03.04-.04c0-.05,0-.09,0-.13,0-.03,0-.05.02-.08,0,0,0-.01,0-.03.01-.07.03-.14.04-.2,0-.06,0-.06,0-.07-.03-.04-.08-.07-.14-.1-.03-.01-.06-.03-.08-.04l-.55-.34s-.04-.02-.06-.04c-.18-.09-.3-.16-.32-.26,0-.01-.02-.05-.03-.06,0,0-.03,0-.04,0-.06,0-.15-.01-.22-.08l-.04-.04c-.1-.1-.19-.19-.2-.41v-.08c0-.09,0-.15-.04-.18-.01-.02-.05-.03-.08-.04-.04-.01-.09-.04-.13-.07-.01-.01-.03-.03-.05-.05-.02-.02-.05-.05-.06-.06-.14-.05-.31-.05-.48-.05H.38s-.07,0-.1,0c-.07,0-.15.01-.21-.04-.06-.06-.07-.14-.07-.22v-.4s0-.04.01-.06c.06-.08.15-.13.25-.17.04-.01.07-.03.09-.04.05-.04.09-.08.14-.12.04-.04.07-.07.11-.11.06-.05.12-.08.18-.11.06-.03.11-.06.13-.08.02-.02.04-.06.06-.09.02-.04.05-.09.09-.13.04-.04.1-.08.15-.11.11-.06.11-.07.09-.11,0-.02-.01-.04-.02-.06-.04-.07-.06-.13-.04-.26,0-.01,0-.03,0-.04,0-.02.01-.06,0-.08-.01,0-.03,0-.04,0-.04,0-.09,0-.14-.05-.04-.05-.04-.12-.04-.17,0-.06,0-.09,0-.12-.01-.13.03-.19.18-.25.45-.18.81-.24,1.14-.19.02,0,.05,0,.08,0,.05,0,.11-.02.17,0l.35.06c.15.03.22.06.32.15.06.05.08.04.18.01.05-.01.11-.04.17-.04.11-.01.21,0,.31,0,.04,0,.09,0,.13,0,.05,0,.11-.02.18-.04.03,0,.06-.02.08-.03.06-.01.11-.03.16-.04.03,0,.05,0,.08-.01h0s.01-.04.03-.05c.05-.06.12-.11.17-.14h.02c.06-.05.11-.08.15-.13.08-.08.18-.07.24-.07h.07s0-.15-.01-.23c-.01-.06-.03-.11-.04-.15,0-.13.06-.21.12-.29.04-.06.07-.09.07-.13,0,0,0-.01,0-.03-.04.02-.1.04-.17,0-.11-.05-.18-.24-.14-.34.03-.08.12-.14.18-.18h.02c.06-.05.11-.08.17-.11.08-.04.15-.08.21-.13.02-.02.05-.04.07-.06.05-.05.11-.1.16-.14,0-.01,0-.04.01-.06,0-.04,0-.08.02-.11.06-.15.22-.28.35-.39.04-.04.08-.07.12-.1l.06-.06c.1-.09.2-.19.33-.27.11-.06.23-.14.36-.19.16-.06.25-.06.4-.05h.03c.29.01.59,0,.88,0,.15,0,.3,0,.44,0,.04,0,.1,0,.16-.01.2-.03.44-.06.58.06.06.05.08.11.09.2,0,.06-.03.11-.04.15,0,.01-.01.03-.01.04,0,0,0,0,.01.01.02.03.06.09.04.18,0,.04-.01.07-.03.11-.01.05-.03.09-.03.13s0,.06.01.11c.01.06-.02.12-.08.13-.06.01-.12-.02-.14-.08-.01-.06-.02-.11-.02-.16,0-.06.02-.13.04-.18,0-.03.01-.06.02-.08,0,0,0,0,0-.01-.02-.03-.05-.07-.05-.14,0-.06.03-.11.04-.14,0,0,.01-.03.01-.03,0-.02,0-.02,0-.03-.06-.05-.28-.02-.4,0-.07,0-.13.01-.19.01-.15,0-.29,0-.44,0-.3,0-.6.01-.9,0h-.03c-.15,0-.18-.01-.31.04-.11.04-.23.11-.32.17-.11.06-.2.15-.3.24l-.06.06s-.08.07-.13.11c-.11.09-.24.19-.28.3,0,0,0,.04,0,.05,0,.07-.02.16-.1.21-.05.04-.1.08-.15.13-.02.02-.05.04-.08.07-.08.07-.17.11-.25.16-.06.03-.11.06-.15.08l-.03.02s-.08.05-.09.07c0,0,0,.02.01.04.03-.01.06-.03.11-.03.13.01.2.16.2.26,0,.12-.06.2-.12.27-.04.06-.07.09-.07.13,0,.02.01.06.02.1.04.14.11.41-.11.51-.06.03-.12.02-.17.02h-.06c-.06.06-.12.1-.19.15h-.02s-.08.06-.11.1c0,0,0,.01-.01.02-.02.04-.06.1-.15.12-.04,0-.06.01-.1.01-.04,0-.09.01-.13.03-.02,0-.04.01-.07.02-.08.03-.17.06-.26.06-.05,0-.1,0-.15-.01-.09,0-.18-.01-.26,0-.04,0-.08.02-.13.04-.11.04-.25.08-.4-.06-.07-.06-.1-.08-.21-.1l-.35-.07s-.05,0-.08,0c-.04,0-.1.02-.15,0-.3-.04-.62.01-1.03.18-.01,0-.03.01-.04.01,0,.04,0,.08,0,.14.03,0,.06.01.08.03.16.08.13.25.12.32v.03c-.01.06,0,.07.01.13,0,.01.02.04.03.06.1.23-.09.34-.19.4-.04.02-.08.04-.1.06s-.04.05-.06.08c-.03.05-.06.11-.12.16-.06.04-.12.08-.18.11-.06.03-.11.06-.14.08-.04.03-.06.06-.1.09-.05.05-.11.11-.18.15-.04.02-.08.04-.12.06-.04.01-.1.04-.13.06v.39h.03s.08,0,.13,0h5.74c.18,0,.38.01.55.07.08.03.13.08.16.13,0,0,.01.01.02.02.01.01.04.02.07.04.05.02.11.04.15.09.11.11.11.24.11.35v.07c0,.13.04.17.13.26l.04.05s.04.01.08.02c.05,0,.11,0,.16.05s.1.13.11.18c.04.04.16.1.21.13.04.01.06.04.08.04l.55.34s.04.03.07.04c.07.04.15.08.21.15.06.08.06.16.06.22,0-.02.02-.04.04-.06.02-.03.05-.06.07-.08.03-.03.04-.04.05-.06,0,0-.01-.02-.02-.04-.03-.05-.06-.11-.05-.18,0-.03.03-.06.05-.07,0,0,.03-.01.06-.04.04-.02.13-.07.19-.11-.08-.19-.06-.41-.04-.62,0-.06.01-.12.02-.18,0-.05,0-.1,0-.15,0-.06.06-.11.12-.11.06,0,.11.06.11.12,0,.05,0,.1,0,.15,0,.06-.01.12-.02.19-.02.2-.05.41.04.54.02.03.03.07.02.1-.01.08-.09.13-.3.25.03.04.06.11.05.18,0,.01,0,.02,0,.03.06-.02.11-.04.18-.06.24-.07.48-.1.8-.1.14,0,.27-.04.4-.09.11-.04.22-.08.34-.09.11-.01.15.02.2.06.01.01.03.02.05.03.06.02.12.01.19,0,.07,0,.15-.01.24,0,.05.01.08.06.08.11,0,.2-.27.28-.39.32l-.12.04c-.09.03-.18.06-.27.08-.04.01-.08.02-.13.04-.05.01-.1.04-.15.07-.06.03-.11.06-.17.08-.11.04-.22.06-.36.06-.04,0-.08.02-.12.04-.06.03-.14.06-.22.04-.04,0-.18.04-.25.07-.06.02-.11.04-.14.04-.13.03-.25.06-.38.08h-.08c-.08.03-.15.04-.22.06-.04-.02-.08-.01-.11-.01m.23-.55s0,.02,0,.04c0,.01,0,.03-.01.04,0,.01,0,.02,0,.04,0,.03,0,.04,0,.06,0,.04,0,.08,0,.11.03,0,.05,0,.08-.01h.08c.12-.04.25-.06.37-.08.03,0,.07-.02.11-.04.18-.06.3-.1.39-.07,0,0,.04-.01.06-.03.06-.02.12-.06.2-.06.12,0,.21-.02.3-.05.04-.01.08-.04.13-.06.06-.04.13-.07.2-.09.04,0,.08-.02.12-.04.09-.03.18-.06.27-.08l.08-.03s-.06-.01-.1-.03c-.05-.02-.08-.04-.1-.06h-.01s0-.01-.01-.01c-.1.01-.2.05-.3.08-.15.05-.3.11-.48.11-.3,0-.53.03-.74.09-.19.06-.35.12-.48.2-.04.02-.08.02-.13,0-.02,0-.03-.01-.04-.03" fill="#007c89"/>
    <path d="m9.17,1.64l.54.86v-.86s.06-.04.2-.04c.15,0,.21.04.21.04v1.48s-.06.04-.2.04-.2-.04-.2-.04l-.55-.86v.85s-.06.04-.21.04-.2-.04-.2-.04v-1.48s.06-.04.2-.04.21.04.21.04" fill="#007c89"/>
    <path d="m11.22,2.49h-.39v.38h.57s.04.05.04.15c0,.11-.04.15-.04.15h-.98v-1.57h.93s.04.05.04.15-.04.15-.04.15h-.52v.28h.39s.04.05.04.15c0,.09-.04.14-.04.14" fill="#007c89"/>
    <path d="m11.93,3.13l-.42-1.48s.06-.04.21-.04.2.04.2.04l.21.75c.01.06.02.1.03.13,0,0,.01-.07.03-.12l.18-.76s.07-.04.18-.04c.1,0,.16.04.16.04l.18.75.03.13s.01-.08.03-.12l.22-.76s.06-.04.2-.04c.15,0,.21.04.21.04l-.43,1.48s-.06.04-.2.04c-.16,0-.22-.04-.22-.04l-.17-.69s-.02-.11-.02-.12l-.03.12-.17.69s-.06.04-.2.04-.21-.04-.21-.04" fill="#007c89"/>
    <path d="m14.33,1.64l.18.32c.06.11.1.23.1.25,0-.01.04-.13.1-.25l.19-.32s.06-.04.2-.04c.15,0,.22.05.22.05l-.49.86v.62s-.06.04-.2.04-.2-.04-.2-.04v-.63l-.5-.85s.07-.05.22-.05c.13,0,.19.04.19.04" fill="#007c89"/>
    <path d="m16.06,3.19c-.53,0-.76-.31-.76-.8s.23-.8.76-.8.76.32.76.8-.23.8-.76.8m0-.3c.22,0,.34-.2.34-.5s-.12-.5-.34-.5-.34.2-.34.5c0,.3.12.5.34.5" fill="#007c89"/>
    <path d="m17.46,3.13s-.06.04-.21.04-.2-.04-.2-.04v-1.46s.17-.08.48-.08c.47,0,.69.18.69.49s-.24.44-.27.44l.37.6s-.17.05-.25.05c-.11,0-.19-.04-.19-.04l-.27-.48s-.04-.06-.08-.06h-.06v.53Zm.11-1.24c-.07,0-.12.01-.12.01v.39h.11c.16,0,.22-.11.22-.2,0-.11-.07-.2-.22-.2" fill="#007c89"/>
    <path d="m19.89,3.12s-.11.06-.27.06c-.15,0-.2-.04-.2-.04l-.53-.72v.72s-.06.04-.2.04-.21-.04-.21-.04v-1.49s.06-.04.21-.04.2.04.2.04v.7l.51-.7s.06-.04.2-.04c.17,0,.23.06.23.06l-.5.68.56.79Z" fill="#007c89"/>
    <path d="m9.48,3.86c.01.07-.02.13-.06.14-.05-.03-.13-.06-.23-.06-.11,0-.19.05-.19.13,0,.06.06.09.18.13l.15.05c.15.06.23.13.23.27,0,.18-.13.32-.4.32-.2,0-.32-.07-.37-.11-.01-.06.02-.12.06-.14.05.04.18.1.32.1.11,0,.19-.05.19-.13,0-.06-.04-.09-.11-.11l-.24-.08c-.12-.04-.21-.13-.21-.27,0-.19.13-.31.39-.31.15,0,.25.05.3.08" fill="#007c89"/>
    <path d="m9.64,3.94s-.02-.02-.02-.08c0-.05.02-.07.02-.07h.77s.02.02.02.07c0,.06-.02.08-.02.08h-.28v.86s-.03.02-.1.02-.11-.02-.11-.02v-.86h-.28Z" fill="#007c89"/>
    <path d="m10.95,3.81l.41.98s-.03.02-.11.02c-.07,0-.1-.02-.1-.02l-.09-.22h-.43l-.09.22s-.03.02-.1.02c-.08,0-.11-.02-.11-.02l.41-.98s.03-.02.1-.02c.08,0,.11.02.11.02m-.25.62h.31l-.12-.28s-.04-.09-.04-.11c0,0-.02.07-.04.11l-.12.28Z" fill="#007c89"/>
    <path d="m11.3,3.94s-.02-.02-.02-.08c0-.05.02-.07.02-.07h.77s.02.02.02.07c0,.06-.02.08-.02.08h-.28v.86s-.03.02-.1.02-.11-.02-.11-.02v-.86h-.28Z" fill="#007c89"/>
    <path d="m12.74,4.35h-.31v.32h.42s.02.02.02.07-.02.08-.02.08h-.63v-1.03h.6s.02.02.02.07-.02.08-.02.08h-.39v.26h.31s.02.02.02.07-.02.08-.02.08" fill="#007c89"/>
    <path d="m13.79,4.83c-.34,0-.48-.2-.48-.52s.13-.53.48-.53.48.21.48.53c0,.32-.14.52-.48.52m0-.15c.18,0,.27-.15.27-.37s-.09-.38-.27-.38-.27.15-.27.38c0,.22.08.37.27.37" fill="#007c89"/>
    <path d="m14.95,4.35h-.31v.45s-.03.02-.1.02-.1-.02-.1-.02v-1h.58s.02.02.02.07-.02.08-.02.08h-.39v.26h.31s.02.02.02.07c0,.05-.01.08-.01.08" fill="#007c89"/>
    <path d="m9.27,6.22c-.34,0-.48-.2-.48-.52s.13-.53.48-.53.48.21.48.53c0,.32-.13.52-.48.52m0-.15c.18,0,.27-.15.27-.37s-.09-.38-.27-.38-.27.15-.27.38.09.37.27.37" fill="#007c89"/>
    <path d="m10.25,5.82h-.13v.37s-.03.02-.1.02-.11-.02-.11-.02v-.97s.11-.05.31-.05c.27,0,.41.12.41.32,0,.2-.15.33-.39.33m0-.5c-.09,0-.13.01-.13.01v.34h.11c.14,0,.2-.08.2-.18,0-.1-.06-.18-.18-.18" fill="#007c89"/>
    <path d="m11.12,5.82h-.13v.37s-.03.02-.1.02-.11-.02-.11-.02v-.97s.11-.05.31-.05c.27,0,.41.12.41.32s-.15.33-.39.33m0-.5c-.09,0-.13.01-.13.01v.34h.11c.14,0,.2-.08.2-.18,0-.1-.06-.18-.18-.18" fill="#007c89"/>
    <path d="m12.1,6.22c-.34,0-.48-.2-.48-.52s.13-.53.48-.53.48.21.48.53c0,.32-.14.52-.48.52m0-.15c.18,0,.27-.15.27-.37s-.09-.38-.27-.38-.27.15-.27.38c0,.22.08.37.27.37" fill="#007c89"/>
    <path d="m12.95,6.18s-.03.02-.11.02c-.07,0-.1-.02-.1-.02v-.97s.11-.05.3-.05c.3,0,.42.12.42.32s-.14.28-.21.29l.26.4s-.08.02-.13.02c-.06,0-.1-.02-.1-.02l-.21-.33s-.03-.04-.06-.04h-.08v.39h.01Zm.11-.86c-.06,0-.11.01-.11.01v.34h.15c.11,0,.16-.08.16-.18,0-.1-.06-.18-.2-.18" fill="#007c89"/>
    <path d="m13.58,5.33s-.02-.02-.02-.08c0-.05.02-.07.02-.07h.77s.02.02.02.07c0,.06-.02.08-.02.08h-.28v.86s-.03.02-.1.02-.11-.02-.11-.02v-.86h-.28Z" fill="#007c89"/>
    <path d="m15.1,5.77v-.58s.03-.02.11-.02c.07,0,.1.02.1.02v.54c0,.29-.08.48-.4.48s-.4-.18-.4-.48v-.54s.03-.02.1-.02.11.02.11.02v.58c0,.18.05.29.2.29.14,0,.2-.1.2-.29" fill="#007c89"/>
    <path d="m15.71,5.2l.44.68v-.68s.03-.02.1-.02.1.02.1.02v.98s-.03.02-.1.02-.1-.02-.1-.02l-.44-.68v.67s-.03.02-.11.02c-.07,0-.1-.02-.1-.02v-.98s.03-.02.1-.02c.08,0,.11.03.11.03" fill="#007c89"/>
    <path d="m16.77,5.2v.98s-.03.02-.1.02-.11-.02-.11-.02v-.98s.03-.02.11-.02c.07,0,.1.02.1.02" fill="#007c89"/>
    <path d="m16.94,5.33s-.02-.02-.02-.08c0-.05.02-.07.02-.07h.77s.02.02.02.07c0,.06-.02.08-.02.08h-.28v.86s-.03.02-.1.02-.11-.02-.11-.02v-.86h-.28Z" fill="#007c89"/>
    <path d="m17.97,5.2l.15.27c.04.06.06.15.07.15,0,0,.03-.09.07-.15l.16-.27s.03-.02.1-.02c.08,0,.11.03.11.03l-.33.57v.41s-.03.02-.1.02-.1-.02-.1-.02v-.41l-.33-.57s.04-.03.11-.03c.06,0,.08.03.08.03" fill="#007c89"/>
    <path d="m24.04,2.96h-.7v.71h.96s.05.06.05.19-.05.2-.05.2h-1.5V1.64h1.42s.06.06.06.2-.06.2-.06.2h-.89v.55h.7s.05.06.05.2c0,.13-.05.19-.05.19" fill="#007c89"/>
    <path d="m25.58,4v-1.1c0-.2-.08-.3-.25-.3-.19,0-.29.13-.32.16v1.24s-.07.05-.25.05-.25-.05-.25-.05v-1.7s.07-.05.25-.05.25.05.25.05v.18s.2-.26.51-.26c.22,0,.41.1.5.27.13-.13.28-.27.58-.27.35,0,.59.18.59.6v.84c0,.08.02.11.12.11,0,0,.04.05.04.14,0,0-.08.16-.34.16-.25,0-.32-.15-.32-.15v-1.03c0-.2-.08-.3-.26-.3-.15,0-.25.08-.32.17v1.24s-.07.05-.25.05-.26-.06-.26-.06" fill="#007c89"/>
    <path d="m28.25,2.61c-.2,0-.28.09-.31.11v.89s.11.1.29.1c.27,0,.39-.15.39-.55,0-.39-.11-.55-.37-.55m.12,1.48c-.22,0-.34-.06-.43-.12v.91s-.07.05-.25.05-.25-.05-.25-.05v-2.54s.08-.08.22-.08c.12,0,.18.06.2.17.11-.11.24-.19.49-.19.52,0,.79.33.79.94,0,.57-.23.91-.77.91" fill="#007c89"/>
    <path d="m29.83,2.31v1.7s-.07.05-.25.05-.25-.05-.25-.05v-1.7s.07-.05.25-.05c.18,0,.25.05.25.05m-.51-.28v-.33s.07-.06.26-.06.26.05.26.06v.33s-.07.06-.25.06-.27-.06-.27-.06" fill="#007c89"/>
    <path d="m30.58,2.31v.13s.12-.2.38-.2c.09,0,.19.02.26.1.06.13,0,.3-.1.35,0,0-.1-.08-.24-.08-.2,0-.29.17-.29.3v1.11s-.07.05-.25.05-.26-.05-.26-.05v-1.7s.07-.05.25-.05c.16,0,.24.04.25.05" fill="#007c89"/>
    <path d="m32.32,3.02c0-.25-.07-.42-.29-.42s-.32.15-.32.42h.61Zm.29.54c.1.05.18.22.11.34,0,0-.22.18-.64.18-.54,0-.88-.32-.88-.92s.37-.93.87-.93.76.31.76.86v.22h-1.12c0,.23.15.4.4.4.27,0,.51-.15.51-.15" fill="#007c89"/>
    <path d="m35.34,1.78c.04.18-.06.33-.16.37-.12-.08-.32-.15-.55-.15-.25,0-.41.11-.41.27,0,.14.12.19.41.29l.34.11c.37.13.56.3.56.65,0,.44-.3.75-.97.75-.48,0-.77-.17-.88-.26-.03-.14.04-.31.15-.37.11.08.44.24.77.24.25,0,.4-.11.4-.28,0-.12-.08-.2-.24-.25l-.56-.18c-.29-.09-.51-.3-.51-.63,0-.46.32-.74.93-.74.38,0,.6.11.72.18" fill="#007c89"/>
    <path d="m36.25,1.82v.44h.32s.05.05.05.17-.05.17-.05.17h-.32v.86c0,.18.03.26.14.26.09,0,.15-.09.15-.09.11.03.17.2.13.33-.03.03-.13.13-.4.13-.39,0-.53-.18-.53-.61v-.88h-.13l-.14-.08c0-.15.04-.25.04-.25h.23v-.44s.07-.05.25-.05c.18,0,.26.06.26.06" fill="#007c89"/>
    <path d="m37.19,3.47c0,.14.08.25.27.25.15,0,.22-.06.25-.1v-.31s-.12-.04-.22-.04c-.22,0-.3.06-.3.2m-.24-.72c-.11-.03-.19-.17-.16-.32.1-.05.32-.2.7-.2.46,0,.73.22.73.61v.82c0,.07.02.11.12.11,0,0,.04.05.04.14,0,0-.09.16-.28.16s-.28-.14-.29-.19c0,0-.23.19-.53.19s-.59-.23-.59-.58c0-.25.13-.52.7-.52.17,0,.31.03.33.04v-.14c0-.19-.1-.27-.3-.27-.24,0-.38.09-.47.14" fill="#007c89"/>
    <path d="m39.1,1.82v.44h.32s.05.05.05.17-.05.17-.05.17h-.32v.86c0,.18.03.26.14.26.09,0,.15-.09.15-.09.11.03.17.2.13.33-.03.03-.13.13-.4.13-.39,0-.53-.18-.53-.61v-.88h-.13l-.14-.08c0-.15.04-.25.04-.25h.23v-.44s.07-.05.25-.05c.18,0,.25.06.25.06" fill="#007c89"/>
    <path d="m40.69,3.02c0-.25-.07-.42-.29-.42s-.32.15-.32.42h.61Zm.29.54c.1.05.18.22.11.34,0,0-.22.18-.64.18-.54,0-.88-.32-.88-.92s.37-.93.87-.93.76.31.76.86v.22h-1.12c0,.23.15.4.4.4.27,0,.51-.15.51-.15" fill="#007c89"/>
    <path d="m23.59,5.51c-.14,0-.26.03-.26.03v1.64s.09.03.27.03c.39,0,.62-.3.62-.84,0-.54-.23-.85-.63-.85m-.04,2.08c-.42,0-.75-.09-.75-.09v-2.28s.3-.1.74-.1c.85,0,1.2.41,1.2,1.22,0,.82-.37,1.26-1.19,1.26" fill="#007c89"/>
    <path d="m25.98,6.53c0-.25-.07-.42-.29-.42s-.32.15-.32.42h.61Zm.29.54c.1.05.18.22.11.34,0,0-.22.18-.64.18-.54,0-.88-.32-.88-.92s.37-.93.87-.93.76.31.76.86v.22h-1.12c0,.23.15.4.4.4.27,0,.51-.15.51-.15" fill="#007c89"/>
    <path d="m28.28,5.82l-.67,1.69s-.06.05-.25.05-.25-.05-.25-.05l-.67-1.69s.08-.06.27-.06c.17,0,.24.05.24.05l.3.76c.05.13.11.37.11.39,0-.01.06-.27.11-.39l.3-.76s.08-.05.24-.05c.18,0,.27.05.27.06" fill="#007c89"/>
    <path d="m29.35,6.53c0-.25-.07-.42-.29-.42s-.32.15-.32.42h.61Zm.29.54c.1.05.18.22.11.34,0,0-.22.18-.64.18-.54,0-.88-.32-.88-.92s.37-.93.87-.93.76.31.76.86v.22h-1.12c0,.23.15.4.4.4.27,0,.51-.15.51-.15" fill="#007c89"/>
    <path d="m30.04,7.44v-2.42s.07-.05.25-.05.25.05.25.05v2.16c0,.08.02.11.12.11,0,0,.04.05.04.14,0,0-.08.16-.35.16-.23,0-.31-.15-.31-.15" fill="#007c89"/>
    <path d="m31.63,6.1c-.25,0-.37.2-.37.55s.11.55.37.55.37-.2.37-.55c0-.34-.11-.55-.37-.55m0,1.48c-.54,0-.87-.3-.87-.93s.33-.93.87-.93.87.3.87.93c0,.63-.33.93-.87.93" fill="#007c89"/>
    <path d="m33.49,6.1c-.2,0-.28.09-.31.11v.9s.11.1.29.1c.27,0,.39-.15.39-.55,0-.39-.11-.56-.37-.56m.12,1.48c-.22,0-.34-.06-.43-.12v.91s-.07.05-.25.05-.25-.05-.25-.05v-2.54s.08-.08.22-.08c.12,0,.18.06.2.17.11-.11.24-.19.49-.19.52,0,.79.33.79.94,0,.57-.23.91-.77.91" fill="#007c89"/>
    <path d="m35.64,7.51v-1.1c0-.2-.08-.3-.25-.3-.19,0-.29.13-.32.16v1.24s-.07.05-.25.05-.25-.05-.25-.05v-1.7s.07-.05.25-.05.25.05.25.05v.18s.2-.26.51-.26c.22,0,.41.1.5.27.13-.13.28-.27.58-.27.35,0,.59.18.59.6v.84c0,.08.02.11.12.11,0,0,.04.05.04.14,0,0-.08.16-.34.16-.25,0-.32-.15-.32-.15v-1.03c0-.2-.08-.3-.26-.3-.15,0-.25.08-.32.17v1.24s-.07.05-.25.05-.26-.06-.26-.06" fill="#007c89"/>
    <path d="m38.54,6.53c0-.25-.07-.42-.29-.42s-.32.15-.32.42h.61Zm.29.54c.1.05.18.22.11.34,0,0-.22.18-.64.18-.54,0-.88-.32-.88-.92s.37-.93.87-.93.76.31.76.86v.22h-1.12c0,.23.15.4.4.4.27,0,.51-.15.51-.15" fill="#007c89"/>
    <path d="m40.81,6.34v.84c0,.08.02.11.12.11,0,0,.04.05.04.14,0,0-.08.16-.34.16-.25,0-.32-.15-.32-.15v-1.03c0-.2-.08-.3-.26-.3s-.28.13-.32.16v1.24s-.07.05-.25.05-.25-.05-.25-.05v-1.69s.07-.06.25-.06.25.06.25.06v.15c.04-.06.19-.23.51-.23.32,0,.56.19.56.61" fill="#007c89"/>
    <path d="m41.69,5.32v.44h.32s.05.05.05.17-.05.17-.05.17h-.32v.86c0,.18.03.26.14.26.09,0,.15-.09.15-.09.11.03.17.2.13.33-.03.03-.13.13-.4.13-.39,0-.53-.18-.53-.61v-.88h-.13l-.14-.08c0-.15.04-.25.04-.25h.23v-.44s.07-.05.25-.05c.18,0,.25.06.25.06" fill="#007c89"/>
    <path d="m21.29,9.17c-.06,0-.12-.06-.12-.12V.12c0-.06.06-.12.12-.12s.12.05.12.12v8.93c0,.07-.06.12-.12.12" fill="#007c89"/>
  </g>
  <polygon points="17 7.26 17 7.29 17.07 7.29 17.07 7.48 17.11 7.48 17.11 7.29 17.17 7.29 17.17 7.26 17 7.26" fill="#007c89"/>
  <polygon points="17.44 7.48 17.4 7.48 17.4 7.32 17.33 7.48 17.31 7.48 17.25 7.32 17.25 7.48 17.21 7.48 17.21 7.26 17.26 7.26 17.32 7.4 17.38 7.26 17.44 7.26 17.44 7.48" fill="#007c89"/>
</svg>