<?xml version="1.0" encoding="UTF-8"?>
<svg id="Layer_1" data-name="Layer 1" xmlns="http://www.w3.org/2000/svg" viewBox="0 0 39.02 11.31">
  <g id="Layer_2" data-name="Layer 2">
    <g id="Layer_1-2" data-name="Layer 1-2">
      <path d="m29.01,8.74V2.12h2.1v.79c.43-.61,1.05-.89,1.77-.89.9,0,1.54.42,1.89,1.07.42-.72,1.21-1.07,2.03-1.07,1.44,0,2.23,1.09,2.23,2.46v4.26h-2.14v-3.94c0-.64-.41-1.03-.9-1.03s-.9.39-.9,1.03v3.94h-2.14v-3.94c0-.64-.41-1.03-.9-1.03s-.9.39-.9,1.03v3.94h-2.14Zm-.72-2.52c0,1.7-1.36,2.67-3.09,2.67s-3.09-.96-3.09-2.67V2.12h2.15v4.04c0,.58.38.95.94.95s.94-.37.94-.95V2.12h2.15v4.1Zm-6.75-2.4v-1.7h-1.76V.43h-2.14v5.94c0,1.64.98,2.47,2.54,2.47.46,0,.94-.05,1.36-.22v-1.69c-.26.09-.54.13-.81.13-.57,0-.95-.26-.95-.86v-2.37h1.76Zm-6.61,1.6c0,.95-.69,1.65-1.54,1.65s-1.56-.7-1.56-1.65.69-1.64,1.56-1.64,1.54.7,1.54,1.64Zm-3.1,5.88v-3.26c.56.52,1.29.81,2.05.8,1.79,0,3.2-1.52,3.2-3.42s-1.41-3.41-3.2-3.41c-.79,0-1.55.31-2.11.86v-.77h-2.09v9.19h2.15Zm-5.06-6.89c0,1.36-1,2.37-2.25,2.37s-2.25-1.01-2.25-2.37,1-2.37,2.25-2.37,2.25,1.01,2.25,2.37h0ZM4.52,0C1.99,0,0,1.96,0,4.42s1.99,4.42,4.52,4.42,4.52-1.96,4.52-4.42S7.05,0,4.52,0Z" fill="#ff612b"/>
    </g>
  </g>
</svg>