<?xml version="1.0" encoding="UTF-8"?>
<svg id="Layer_1" data-name="Layer 1" xmlns="http://www.w3.org/2000/svg" viewBox="0 0 45.58 5.92">
  <path d="m19.72,3.85h3.01l-1.59-2.56-2.92,4.63h-1.33L20.44.36c.27-.38.8-.48,1.18-.21.08.05.15.12.2.2l3.56,5.57h-1.33l-.63-1.04h-3.04l-.66-1.03m13.79,1.03V.06h-1.13v5.3c0,.15.06.29.17.39.11.11.26.17.41.17h5.13l.67-1.04h-5.25m-18.65-.87c1.09,0,1.98-.89,1.98-1.98S15.96.06,14.87.06h-4.93v5.86h1.13V1.09h3.74c.52,0,.95.42.95.95s-.42.95-.95.95h-3.18l3.37,2.93h1.64l-2.26-1.9h.51m-11.86,1.9h3.41c1.62-.04,2.9-1.39,2.85-3.01-.04-1.56-1.29-2.81-2.85-2.85h-3.41C1.39.02.04,1.29,0,2.91c-.04,1.62,1.24,2.96,2.85,3.01.05,0,.1,0,.15,0m3.33-1.03h-3.25c-1.05-.03-1.87-.91-1.84-1.96.03-1,.84-1.8,1.84-1.84h3.25c1.05-.03,1.92.79,1.96,1.84.03,1.05-.79,1.92-1.84,1.96-.04,0-.08,0-.12,0m21.4,1.03h3.48l.66-1.03h-4.06c-1.05.03-1.92-.79-1.96-1.84-.03-1.05.79-1.92,1.84-1.96.04,0,.08,0,.12,0h3.3l.67-1.04h-4.05c-1.62-.04-2.96,1.24-3.01,2.85-.04,1.62,1.24,2.96,2.85,3.01.05,0,.1,0,.15,0m13.78-1.03c-.85,0-1.6-.56-1.83-1.38h4.82l.66-1.03h-5.48c.23-.82.98-1.38,1.83-1.38h3.31l.66-1.04h-4.04c-1.62.04-2.9,1.39-2.85,3.01.04,1.56,1.29,2.81,2.85,2.85h3.48l.66-1.03h-4.06" fill="#c74634"/>
</svg>