<?xml version="1.0" encoding="UTF-8"?>
<svg id="Layer_1" data-name="Layer 1" xmlns="http://www.w3.org/2000/svg" viewBox="0 0 41.22 41.14">
  <g id="g2105">
    <g id="g2107">
      <g id="g2109">
        <path id="path2111" d="m36.05,0H0v41.14h36.05V0Z" fill="#fff"/>
        <g id="g2113">
          <path id="path2115" d="m20.76,27.91c-.52.3-.85.66-1.05,1.13-.39,1.05-.17,2.23.63,3.55l-.77.77-.88,1.29c-.41,1.13-.25,2.31.58,3.6.5.85,1.4,1.27,2.75,1.24h3.44c.52.06.74-.11.63-.52v-6.24h-1.95v1.57l-2.2-3.11-.33-.96c0-.55.25-.8.74-.74l.28.08c.22.11.3.28.36.52v.88h2.2v-.74c-.03-.66-.14-1.18-.36-1.57l-.3-.39c-.47-.44-1.1-.66-1.9-.72l-1.13.08-.74.28Z" fill="#fdb813"/>
        </g>
        <g id="g2117">
          <path id="path2119" d="m22.8,37.57h1.21l.03-.14-2.67-3.14c-.25.17-.41.5-.52.99-.14.63-.03,1.21.33,1.76l.44.3,1.18.22Z" fill="#fff"/>
        </g>
        <g id="g2121">
          <path id="path2123" d="m33.61,33.5h-3.16v3.47h3.16v2.53h.88V1.54h-7.56v38.06h.44v-14.47h6.24v2.56h-3.16v3.25h3.16v2.56Z" fill="#1689c5"/>
        </g>
        <g id="g2125">
          <path id="path2127" d="m6.77,28.77c-.19-.85-.69-1.21-1.4-1.07v4.21c.83.14,1.29-.3,1.4-1.32v-1.82Z" fill="#1689c5"/>
        </g>
        <g id="g2129">
          <path id="path2131" d="m12.4,25l1.54-.22c1.13.06,2.01.47,2.59,1.27l.44.69c.22.66.33,1.57.22,2.7l-2.78-.03v-1.38c-.06-.41-.25-.63-.69-.63-.41.03-.63.3-.63.83v8.22l.08.39c.11.25.28.41.52.44.55.19.85-.06.85-.69v-2.42h-.77v-2.53h3.52v3.41L26.73,1.54H1.54v38.09h.91v-14.55h2.97l1.54.17c1.13.33,1.9.91,2.31,1.82.22.47.36,1.27.47,2.37.11,1.54-.03,2.53-.36,2.94-.63,1.43-1.65,2.15-3.08,2.04l-.99-.03v5.14h6.99c-1.4-.3-2.09-1.38-2.09-3.11v-8.33c-.19-1.65.55-2.7,2.2-3.08Z" fill="#1689c5"/>
        </g>
        <g id="g2133">
          <path id="path2135" d="m39.02,4.46c1.49,0,2.2-.74,2.2-2.26,0-1.43-.72-2.12-2.2-2.12s-2.23.69-2.23,2.12c0,1.51.72,2.26,2.23,2.26Zm1.79-2.26c0,1.32-.58,1.93-1.79,1.93s-1.84-.61-1.84-1.93c0-1.21.61-1.84,1.84-1.84,1.21,0,1.79.63,1.79,1.84Z" fill="#1689c5"/>
          <path id="path2137" d="m40.04,1.68c0-.5-.33-.74-.91-.74h-.96v2.61h.39v-1.13h.44l.72,1.13h.41l-.74-1.16c.47-.06.66-.3.66-.72Zm-.94-.41c.39,0,.55.14.55.39,0,.3-.25.44-.69.44h-.41v-.83h.55Z" fill="#1689c5"/>
        </g>
      </g>
    </g>
  </g>
</svg>