<?xml version="1.0" encoding="UTF-8"?>
<svg id="Layer_1" data-name="Layer 1" xmlns="http://www.w3.org/2000/svg" xmlns:xlink="http://www.w3.org/1999/xlink" viewBox="0 0 40.16 11.08">
  <defs>
    <linearGradient id="linear-gradient" x1=".77" y1="12.66" x2=".77" y2="9.49" gradientTransform="translate(0 13.08) scale(1 -1)" gradientUnits="userSpaceOnUse">
      <stop offset="0" stop-color="#ffc708"/>
      <stop offset="1" stop-color="#f05731"/>
      <stop offset="1" stop-color="#f05731"/>
    </linearGradient>
    <linearGradient id="linear-gradient-2" x1="2.51" y1="10.22" x2="1.68" y2="4.22" gradientTransform="translate(0 13.08) scale(1 -1)" gradientUnits="userSpaceOnUse">
      <stop offset="0" stop-color="#f80000"/>
      <stop offset="1" stop-color="#ee3984"/>
    </linearGradient>
    <linearGradient id="linear-gradient-3" x1="1.36" y1="3.13" x2="5.7" y2="4.5" gradientTransform="translate(0 13.08) scale(1 -1)" gradientUnits="userSpaceOnUse">
      <stop offset="0" stop-color="#ee3984"/>
      <stop offset="1" stop-color="#7800da"/>
      <stop offset="1" stop-color="#7800da"/>
    </linearGradient>
    <linearGradient id="linear-gradient-4" x1="7.26" y1="8.56" x2="8.85" y2="2.96" gradientTransform="translate(0 13.08) scale(1 -1)" gradientUnits="userSpaceOnUse">
      <stop offset="0" stop-color="red"/>
      <stop offset="1" stop-color="#ee3984"/>
      <stop offset="1" stop-color="#ee3984"/>
    </linearGradient>
    <linearGradient id="linear-gradient-5" x1="4.02" y1="8.54" x2="11.02" y2="8.54" gradientTransform="translate(0 13.08) scale(1 -1)" gradientUnits="userSpaceOnUse">
      <stop offset="0" stop-color="#ffc708"/>
      <stop offset="1" stop-color="#fa3b00"/>
    </linearGradient>
    <linearGradient id="linear-gradient-6" x1="12.83" y1="6.47" x2="17.67" y2="6.47" gradientTransform="translate(0 13.08) scale(1 -1)" gradientUnits="userSpaceOnUse">
      <stop offset="0" stop-color="red"/>
      <stop offset="1" stop-color="#ee3984"/>
    </linearGradient>
    <linearGradient id="linear-gradient-7" x1="16.73" y1="4.13" x2="12.47" y2="3.01" gradientTransform="translate(0 13.08) scale(1 -1)" gradientUnits="userSpaceOnUse">
      <stop offset="0" stop-color="#ee3984"/>
      <stop offset="1" stop-color="#7800da"/>
    </linearGradient>
    <linearGradient id="linear-gradient-8" x1="13.36" y1="9.17" x2="17.43" y2="9.17" gradientTransform="translate(0 13.08) scale(1 -1)" gradientUnits="userSpaceOnUse">
      <stop offset="0" stop-color="#ffc708"/>
      <stop offset="1" stop-color="#f05731"/>
      <stop offset="1" stop-color="#f05731"/>
    </linearGradient>
    <linearGradient id="linear-gradient-9" x1="8.03" y1="3.97" x2="10.99" y2="8.81" xlink:href="#linear-gradient-7"/>
  </defs>
  <g>
    <polygon points="20.59 4.64 21.43 4.64 21.43 3.13 22.04 3.13 22.04 2.52 19.99 2.52 19.99 3.13 20.59 3.13 20.59 4.64" fill="#007dc5"/>
    <polygon points="22.66 4.64 23.09 3.37 23.52 4.64 24.35 4.64 23.54 2.52 22.64 2.52 21.83 4.64 22.66 4.64" fill="#007dc5"/>
    <polygon points="24.75 4.64 25.6 4.64 25.6 3.13 26.2 3.13 26.2 2.52 24.15 2.52 24.15 3.13 24.75 3.13 24.75 4.64" fill="#007dc5"/>
    <polygon points="26.82 4.64 27.25 3.37 27.69 4.64 28.51 4.64 27.7 2.52 26.81 2.52 25.99 4.64 26.82 4.64" fill="#007dc5"/>
    <path d="m34.95,6.16c.1.24.24.5.38.73l.55.93h.4v-2.12h-.36v.74c0,.32,0,.6.03.88h0c-.1-.23-.22-.48-.36-.71l-.55-.91h-.44v2.12h.36v-.76c0-.35,0-.63-.02-.9h0Z" fill="#007dc5"/>
    <path d="m33.03,7.23h.67l.19.6h.42l-.69-2.12h-.49l-.68,2.12h.4l.18-.6Zm.23-.82c.04-.13.07-.27.1-.4h0c.03.12.07.27.11.4l.17.52h-.55l.17-.52Z" fill="#007dc5"/>
    <path d="m26.71,7.54c-.2,0-.39-.06-.51-.14l-.09.32c.12.07.35.14.57.14.55,0,.81-.3.81-.64,0-.3-.18-.49-.55-.63-.28-.11-.41-.18-.41-.35,0-.13.1-.26.35-.26.2,0,.35.06.42.1l.09-.31c-.11-.06-.28-.1-.51-.1-.46,0-.75.26-.75.61,0,.3.22.49.57.62.27.1.38.19.38.35,0,.17-.14.29-.39.29Z" fill="#007dc5"/>
    <path d="m21.14,5.99c.17,0,.31.04.41.08l.08-.31c-.08-.04-.26-.09-.51-.09-.65,0-1.14.42-1.14,1.12,0,.65.41,1.07,1.08,1.07.26,0,.46-.05.55-.1l-.06-.31c-.1.05-.27.08-.42.08-.47,0-.74-.3-.74-.76,0-.51.31-.78.74-.78Z" fill="#007dc5"/>
    <polygon points="31.97 7.83 31.97 6.03 32.59 6.03 32.59 5.7 30.98 5.7 30.98 6.03 31.59 6.03 31.59 7.83 31.97 7.83" fill="#007dc5"/>
    <path d="m39.72,5.7l-.26.54c-.07.15-.13.29-.18.42h0c-.06-.14-.11-.26-.18-.42l-.25-.54h-.44l.67,1.24v.88h.39v-.89l.71-1.23h-.44Z" fill="#007dc5"/>
    <path d="m22.76,5.67c-.6,0-1.01.46-1.01,1.11s.38,1.08.98,1.08h0c.58,0,1.01-.41,1.01-1.12,0-.61-.37-1.07-.98-1.07Zm-.02,1.88h0c-.37,0-.59-.36-.59-.78,0-.42.2-.79.59-.79s.59.38.59.78c0,.44-.21.79-.59.79Z" fill="#007dc5"/>
    <path d="m37.78,5.99c.17,0,.31.04.41.08l.08-.31c-.08-.04-.26-.09-.51-.09-.65,0-1.14.42-1.14,1.12,0,.65.41,1.07,1.08,1.07.26,0,.46-.05.55-.1l-.06-.31c-.1.05-.27.08-.42.08-.47,0-.74-.3-.74-.76,0-.51.31-.78.74-.78Z" fill="#007dc5"/>
    <polygon points="30.32 5.7 29.94 5.7 29.94 7.83 31.2 7.83 31.2 7.5 30.32 7.5 30.32 5.7" fill="#007dc5"/>
    <path d="m29.49,6.92v-1.21h-.39v1.24c0,.42-.17.61-.45.61-.26,0-.44-.19-.44-.61v-1.24h-.39v1.21c0,.67.32.94.81.94.51,0,.85-.29.85-.95Z" fill="#007dc5"/>
    <path d="m25.76,5.7h-.36v.74c0,.32,0,.6.03.88h0c-.1-.23-.22-.48-.36-.71l-.55-.91h-.44v2.12h.36v-.76c0-.35,0-.63-.02-.9h0c.1.24.24.5.38.73l.55.93h.4v-2.12h0Z" fill="#007dc5"/>
    <rect x="27.03" y="8.89" width=".39" height="2.12" fill="#007dc5"/>
    <path d="m24.37,10.01h0c.2-.08.38-.26.38-.53,0-.18-.07-.33-.18-.42-.14-.12-.39-.17-.65-.17s-.44.02-.58.05v2.08h.38v-.87h.19c.22,0,.32.09.38.37.06.26.11.44.14.5h.39c-.04-.08-.1-.32-.17-.59-.05-.2-.14-.35-.29-.41Zm-.42-.15h-.23v-.67s.12-.02.24-.02c.25,0,.41.11.41.34,0,.21-.16.35-.42.35Z" fill="#007dc5"/>
    <path d="m26.08,9.86c-.08.26-.16.52-.22.77h0c-.06-.26-.13-.5-.21-.77l-.29-.97h-.42l.69,2.12h.44l.73-2.12h-.41l-.31.97Z" fill="#007dc5"/>
    <polygon points="30.1 10.07 30.9 10.07 30.9 9.75 30.1 9.75 30.1 9.21 30.95 9.21 30.95 8.89 29.71 8.89 29.71 11.01 31 11.01 31 10.69 30.1 10.69 30.1 10.07" fill="#007dc5"/>
    <path d="m28.9,9.17c.17,0,.31.04.41.08l.08-.31c-.08-.04-.26-.09-.51-.09-.65,0-1.14.42-1.14,1.12,0,.65.41,1.07,1.08,1.07.26,0,.46-.05.55-.1l-.06-.31c-.1.05-.27.08-.42.08-.47,0-.74-.3-.74-.76,0-.51.31-.78.74-.78Z" fill="#007dc5"/>
    <path d="m20.82,9.77c-.28-.11-.41-.18-.41-.35,0-.13.1-.26.35-.26.2,0,.35.06.42.1l.09-.31c-.11-.06-.28-.1-.51-.1-.46,0-.75.26-.75.61,0,.3.22.49.57.62.27.1.38.19.38.35,0,.17-.14.29-.39.29-.2,0-.39-.06-.51-.14l-.09.32c.12.07.35.14.57.14.55,0,.81-.3.81-.64,0-.31-.18-.49-.55-.63Z" fill="#007dc5"/>
    <polygon points="22.1 10.07 22.9 10.07 22.9 9.75 22.1 9.75 22.1 9.21 22.95 9.21 22.95 8.89 21.71 8.89 21.71 11.01 23 11.01 23 10.69 22.1 10.69 22.1 10.07" fill="#007dc5"/>
    <path d="m32.07,9.77c-.28-.11-.41-.18-.41-.35,0-.13.1-.26.35-.26.2,0,.35.06.42.1l.09-.31c-.11-.06-.28-.1-.51-.1-.46,0-.75.26-.75.61,0,.3.22.49.57.62.27.1.38.19.38.35,0,.17-.14.29-.39.29-.2,0-.39-.06-.51-.14l-.09.32c.12.07.35.14.57.14.55,0,.81-.3.81-.64,0-.31-.18-.49-.55-.63Z" fill="#007dc5"/>
  </g>
  <g>
    <path d="m0,3.97c0-.96.62-1.54,1.54-1.54V.8c0-.48-.32-.8-.77-.8s-.77.32-.77.8v3.17Z" fill="url(#linear-gradient)"/>
    <path d="m2.72,11.07c.38,0,.74-.06,1.06-.18-1.62.27-2.24-.83-2.24-2.08V3.68h1.87c.43,0,.72-.26.72-.62s-.29-.62-.72-.62h-1.87c-.91,0-1.54.58-1.54,1.54v4.4c0,1.76,1.01,2.69,2.72,2.69Z" fill="url(#linear-gradient-2)"/>
    <path d="m3.78,10.89c.64-.24,1.14-.69,1.46-1.35l-.72-1.3c-.32.96-.88,1.47-1.65,1.47s-1.33-.46-1.33-1.52v.61c0,1.25.62,2.35,2.24,2.08Z" fill="url(#linear-gradient-3)"/>
    <path d="m10.36,10.64c-3.65.54-4.81-1.41-4.81-3.92,0-1.83,1.12-3.08,2.74-3.08.59,0,1.09.13,1.54.34.21.1.38.13.54.13.38,0,.64-.26.64-.64,0-.24-.14-.48-.48-.64-.61-.3-1.39-.48-2.24-.48-2.53,0-4.28,1.79-4.28,4.4s1.68,4.34,4.39,4.34c.74,0,1.38-.14,1.96-.45Z" fill="url(#linear-gradient-4)"/>
    <path d="m4.02,6.74c0-2.61,1.75-4.4,4.28-4.4.85,0,1.63.18,2.24.48.34.16.48.4.48.64,0,.38-.26.64-.64.64-.16,0-.34-.03-.54-.13-.54-.26-1.07-.34-1.54-.34-2.23,0-4.28,1.41-4.28,3.11Z" fill="url(#linear-gradient-5)"/>
    <path d="m13.58,2.85c-.14.14-.22.32-.22.53,0,.53.5,1.31,1.65,2.11l1.31.91c.96.67,1.35,1.31,1.35,2.27,0,.69-.27,1.28-.72,1.7.16-.14.26-.34.26-.59,0-.56-.56-1.44-1.76-2.27l-1.2-.83c-1.01-.71-1.41-1.36-1.41-2.26,0-.53.19-1.01.51-1.36.08-.08.16-.14.24-.21Z" fill="url(#linear-gradient-6)"/>
    <path d="m12.54,10.04c0,.26.13.46.46.62.46.22,1.22.42,1.89.42.85,0,1.55-.26,2.05-.71.16-.14.26-.34.26-.59,0-.56-.56-1.44-1.76-2.27.54.38.77.71.77,1.17,0,.69-.54,1.15-1.33,1.15s-1.39-.38-1.75-.38-.59.24-.59.59Z" fill="url(#linear-gradient-7)"/>
    <path d="m15.01,5.49c-.51-.37-.74-.71-.74-1.11,0-.51.42-.83,1.01-.83.75,0,1.11.35,1.55.35.35,0,.59-.24.59-.59,0-.26-.13-.46-.46-.62-.53-.26-1.11-.35-1.73-.35-.66,0-1.23.19-1.65.51-.14.14-.22.32-.22.53,0,.53.5,1.31,1.65,2.11Z" fill="url(#linear-gradient-8)"/>
    <path d="m5.56,6.71c0,2.51,1.15,4.47,4.81,3.92,1.17-.61,2-1.84,2.58-3.73l.34-1.11c-.32-.42-.45-.88-.45-1.38,0-.53.19-1.01.51-1.36-.48.51-.88,1.27-1.2,2.32l-.37,1.22c-.66,2.15-1.7,3.17-3.32,3.17-1.78,0-2.9-1.23-2.9-3.06Z" fill="url(#linear-gradient-9)"/>
  </g>
</svg>