<?xml version="1.0" encoding="UTF-8"?>
<svg id="Layer_1" data-name="Layer 1" xmlns="http://www.w3.org/2000/svg" xmlns:xlink="http://www.w3.org/1999/xlink" viewBox="0 0 44.69 22.35">
  <defs>
    <clipPath id="clippath">
      <rect width="44.69" height="22.35" fill="none"/>
    </clipPath>
  </defs>
  <g id="g10">
    <g id="g12">
      <path id="path14" d="m7.91,5.66H3.29s0,1.08,0,1.08h1.68v3.55h1.25v-3.55s1.69,0,1.69,0v-1.08Z" fill="#656262" fill-rule="evenodd"/>
    </g>
    <g id="g16">
      <g clip-path="url(#clippath)">
        <g id="g18">
          <g id="g24">
            <path id="path26" d="m20.49,13.52c0-.41-.33-.73-.74-.73h-1.63c-.14,0-.21.07-.29.18,0,0-.49.7-.49.7h1.57c.18,0,.33.16.33.35v2.17h1.24v-2.66s0,0,0,0" fill="#e51635" fill-rule="evenodd"/>
          </g>
          <path id="path28" d="m16.11,11.55h1.24v4.64h-1.24v-4.64Z" fill="#e51635" fill-rule="evenodd"/>
          <g id="g30">
            <path id="path32" d="m26.87,12.79h-3.52v3.4h1.25v-2.52h1.41c.19,0,.35.15.35.35v2.17h1.24v-2.67c0-.41-.33-.73-.74-.73" fill="#e51635" fill-rule="evenodd"/>
          </g>
          <g id="g34">
            <path id="path36" d="m9.24,11.55H3.29v4.64h1.23v-3.55h1.32c.13,0,.23.1.23.23v3.32h1.24v-3.32c0-.13.1-.23.23-.23h.97c.19,0,.34.15.34.34v3.22h1.23v-3.78c0-.47-.38-.85-.85-.85" fill="#e51635" fill-rule="evenodd"/>
          </g>
          <g id="g38">
            <path id="path40" d="m21.3,13.9v2.3h1.24v-3.36s-.57.36-.98.61c-.15.1-.26.27-.26.46" fill="#e51635" fill-rule="evenodd"/>
          </g>
          <g id="g42">
            <path id="path44" d="m21.3,11.55h1.24v.86l-1.24.82v-1.68Z" fill="#e51635" fill-rule="evenodd"/>
          </g>
          <g id="g46">
            <path id="path48" d="m34.22,12.79c-.31,0-.51.24-.51.49v2.91h1.25v-2.17c0-.19.14-.36.33-.36h.92c.13,0,.25-.09.32-.19,0,0,.48-.69.48-.69h-2.8Z" fill="#e51635" fill-rule="evenodd"/>
          </g>
          <g id="g50">
            <path id="path52" d="m31.66,11.55v3.79h-1.79c-.13,0-.21-.11-.21-.2v-1.12h0c0-.19.15-.35.35-.35h.91c.13,0,.27-.08.33-.17l.42-.71h-2.52c-.4,0-.73.33-.73.73h0v2.06c0,.39.31.61.6.61h3.89v-4.64h-1.24Z" fill="#e51635" fill-rule="evenodd"/>
          </g>
          <g id="g54">
            <path id="path56" d="m40.66,12.79h-2.86c-.14,0-.27.07-.35.18l-.48.71h2.88c.18,0,.33.16.33.35v1.35h-2.16v-.39c0-.08.06-.14.14-.14h1.51v-.5c0-.12-.08-.19-.18-.19h-2.09c-.26,0-.46.2-.46.46v1.23s0,.01,0,.02c.03.18.19.32.38.32h4.08v-2.67c0-.41-.33-.73-.73-.73" fill="#e51635" fill-rule="evenodd"/>
          </g>
          <g id="g58">
            <path id="path60" d="m14.61,12.79h-2.86c-.14,0-.27.07-.35.18l-.49.71h2.88c.18,0,.33.16.33.35v1.35h-2.16v-.39c0-.08.06-.14.14-.14h1.51v-.5c0-.12-.08-.19-.18-.19h-2.09c-.26,0-.46.2-.46.46v1.23s0,.01,0,.02c.03.18.19.32.38.32h4.08v-2.67c0-.41-.33-.73-.73-.73" fill="#e51635" fill-rule="evenodd"/>
          </g>
          <g id="g62">
            <path id="path64" d="m22.54,7.69c0-.41-.33-.73-.74-.73h-1.67c-.14,0-.21.07-.29.18,0,0-.49.7-.49.7h1.61c.18,0,.33.16.33.35v2.17h1.24v-2.66h0Zm-4.42-1.97h1.24v4.64h-1.24v-4.64Z" fill="#656262" fill-rule="evenodd"/>
          </g>
          <g id="g66">
            <path id="path68" d="m14.69,9.13h0c0,.19.16.35.35.35h2.31s0,.88,0,.88h-3.18c-.4,0-.74-.33-.74-.73h0v-2.52.52c0-.41.33-.73.74-.73h3.17l-.2.49c-.04.1-.06.19-.16.26-.07.05-.12.08-.21.08h-1.74c-.19,0-.35.15-.35.35h0v1.06" fill="#656262" fill-rule="evenodd"/>
          </g>
          <g id="g70">
            <path id="path72" d="m9.13,10.32h2.65c.14,0,.27-.07.35-.18l.49-.71h-2.67c-.18,0-.33-.16-.33-.35v-1.35h1.95v.39c0,.08-.06.14-.14.14h-1.3v.5c0,.12.08.19.18.19h1.88c.26,0,.46-.2.46-.46v-1.23s0-.01,0-.02c-.03-.18-.19-.32-.38-.32h-3.87v2.67c0,.41.33.73.73.73" fill="#656262" fill-rule="evenodd"/>
          </g>
        </g>
      </g>
    </g>
  </g>
</svg>