<?xml version="1.0" encoding="UTF-8"?>
<svg id="Layer_1" data-name="Layer 1" xmlns="http://www.w3.org/2000/svg" viewBox="0 0 43.08 11.27">
  <path d="m28.02,10.45c.52,0,.84-.37.9-.78.06-.36-.12-.78-.64-.78s-.84.37-.9.78c-.06.36.12.78.64.78m-.01.22c-.62,0-.93-.5-.85-1.01.08-.49.48-.98,1.15-.98.62,0,.93.5.85,1.01-.08.49-.46.98-1.15.98m3.45-1.35l-.65,1.31h-.23l-.19-1.01-.52,1.01h-.24l-.24-1.31h.22l.18,1.04.54-1.04h.19l.2,1.04.5-1.04h.24Zm.94-.03c.32,0,.5.22.45.55l-.13.8h-.22l.13-.79c.04-.24-.09-.35-.29-.35s-.37.14-.48.27l-.14.88h-.22l.21-1.31h.19l-.04.21c.13-.14.32-.24.53-.24m2.23,0c.15,0,.29.04.41.12l-.04.21c-.09-.09-.22-.12-.35-.12-.26,0-.55.13-.61.49-.05.34.17.49.45.49.14,0,.29-.05.42-.11l-.04.23c-.14.06-.27.09-.43.09-.36,0-.68-.23-.61-.71.06-.5.47-.68.8-.68m1.05-.57l-.13.78c.13-.11.31-.22.5-.22.32,0,.5.22.45.55l-.13.8h-.21l.13-.79c.04-.24-.09-.35-.29-.35s-.37.14-.48.27l-.14.88h-.23l.3-1.92h.22Zm1.69,1.75c.24,0,.45-.16.55-.33l.05-.33c-.04-.17-.19-.32-.42-.32-.26,0-.5.18-.55.49-.04.29.13.49.38.49m-.04.2c-.38,0-.62-.3-.55-.7.06-.39.38-.68.75-.68.26,0,.41.13.5.26l.04-.23h.19l-.21,1.31h-.19l.04-.22c-.14.15-.32.26-.57.26m2.03-1.38c.32,0,.5.22.45.55l-.13.8h-.22l.13-.79c.04-.24-.09-.35-.29-.35s-.37.14-.48.27l-.14.88h-.22l.21-1.31h.19l-.04.21c.12-.14.31-.24.52-.24m1.31,1.18c.24,0,.45-.15.55-.31l.06-.35c-.04-.17-.19-.32-.43-.32-.26,0-.5.18-.55.49-.04.29.13.49.38.49m-.09.8c-.24,0-.42-.05-.55-.14l.04-.21c.13.09.28.14.5.14.29,0,.53-.13.58-.44l.03-.19c-.11.11-.29.23-.54.23-.38,0-.62-.3-.55-.7.06-.39.38-.68.75-.68.26,0,.41.12.5.27l.04-.24h.2l-.21,1.32c-.07.45-.42.62-.78.62m1.96-1.78c-.24,0-.47.15-.52.4h.85c.04-.15,0-.4-.33-.4m0-.2c.5,0,.64.42.5.8h-1.05c-.01.28.24.38.47.38.17,0,.34-.04.47-.11l-.04.22c-.13.06-.29.09-.47.09-.34,0-.71-.22-.64-.7.08-.45.45-.68.76-.68m-23.59-5.25l2.4,2.94h-1.56l-2.24-2.74v2.74h-1.41V1.13h1.41v2.64h.01l1.78-2.64h1.55l-1.95,2.9Zm-10.86,2.94V2.36h-1.83v-1.21h5.08v1.21h-1.83v4.62h-1.42Zm3.55,0V1.14h4.16v1.17h-2.76v1.19h2.63v1.07h-2.63v1.24h2.8v1.17h-4.2Zm31.05-3.13h.02s.04,0,.04-.03-.01-.03-.04-.03h-.02v.06Zm0,.11h-.04v-.2s.04,0,.08,0,.06,0,.06.01c.01,0,.02.02.02.04s-.01.04-.04.05h0s.03.02.04.05,0,.04.01.05h-.05s0-.02-.01-.05c0-.02-.01-.03-.04-.03h-.02v.08Zm-.11-.1c0,.09.06.16.15.16s.15-.07.15-.16-.06-.16-.15-.16-.15.07-.15.16m.35,0c0,.11-.09.2-.2.2s-.2-.09-.2-.2c0-.11.09-.2.21-.2.11,0,.19.09.19.2m-20.12,3.16h-.06c-.19,0-.37-.03-.53-.08-.52-.15-.84-.52-.84-.99v-.04h.22v.04c0,.37.25.66.68.79.15.04.32.07.48.07h.05c.14,0,.29-.02.42-.06.4-.11.62-.37.62-.7,0-.53-.55-.6-1.14-.68h-.02c-.62-.08-1.26-.16-1.26-.82,0-.41.28-.73.75-.87.14-.04.32-.06.51-.06.17,0,.34.02.51.06.5.15.79.47.79.88v.04h-.22v-.05c0-.44-.45-.62-.63-.67-.32-.09-.65-.08-.9,0-.38.11-.6.35-.6.66,0,.45.45.53,1.08.61.66.08,1.34.17,1.34.88,0,.43-.29.76-.78.91-.15.05-.32.07-.47.07m2.21,1.11h-.23l.5-1.16-1.39-3.31h.23l1.28,3.06,1.35-3.06h.23l-1.97,4.47Zm3.25-1.11h-.06c-.19,0-.37-.03-.53-.08-.52-.15-.83-.52-.83-.99v-.04h.22v.04c0,.37.25.66.68.79.15.04.32.07.49.07h.05c.14,0,.29-.02.42-.06.4-.11.62-.37.62-.7,0-.53-.55-.6-1.14-.68h-.02c-.62-.08-1.26-.16-1.26-.82,0-.41.28-.73.75-.87.14-.04.32-.06.51-.06.17,0,.34.02.51.06.5.15.79.47.79.88v.04h-.22v-.05c0-.44-.45-.62-.63-.67-.32-.09-.65-.08-.9,0-.38.11-.6.35-.6.66,0,.45.45.53,1.08.61.66.08,1.34.17,1.34.88,0,.43-.29.76-.78.91-.16.05-.32.07-.49.07m2.63-.01c-.72,0-.85-.42-.85-1.14v-1.99h-.61v-.21h.61v-.68h.22v.68h.9v.21h-.9v1.99c0,.73.11,1.01.9.92h.04s.02.2.02.2h-.04c-.1.01-.19.02-.28.02m.41-1.85h2.84c-.07-.79-.63-1.31-1.41-1.31-.62,0-1.1.32-1.31.86-.06.14-.09.29-.11.45m1.42,1.85c-.71,0-1.26-.37-1.52-1.01-.08-.2-.12-.44-.12-.69s.04-.48.12-.68c.25-.64.8-1.01,1.52-1.01.46,0,.86.16,1.16.46.31.31.47.74.47,1.23v.04h-3.05c0,.2.04.39.11.57.22.55.7.86,1.31.86s1.05-.28,1.28-.79v-.03h.24l-.03.06c-.25.62-.79.98-1.49.98m6.87-.02h-.22v-1.85c0-.42-.11-.76-.31-.97-.19-.21-.45-.31-.77-.31h-.01c-.23,0-.55.06-.78.34-.19.23-.28.55-.28.97v1.82h-.22v-1.82c0-.44-.11-.78-.31-1-.18-.2-.45-.31-.76-.31h-.01c-.23,0-.55.06-.78.34-.18.21-.27.52-.28.91v1.87h-.22v-3.34h.22v.58c.03-.06.07-.11.11-.17.29-.34.68-.42.96-.42h.01c.38,0,.7.13.93.37.11.11.2.29.26.47.05-.18.14-.33.22-.43.28-.34.68-.42.95-.42h.01c.38,0,.7.13.92.37.24.27.36.64.37,1.12v1.84h0Zm1.76.03h-.06c-.19,0-.37-.03-.53-.08-.52-.15-.83-.52-.83-.99v-.04h.22v.04c0,.37.25.66.68.79.15.04.32.07.49.07h.05c.14,0,.29-.02.42-.06.4-.11.62-.37.62-.7,0-.53-.55-.6-1.14-.68h-.02c-.62-.08-1.26-.16-1.26-.82,0-.41.28-.73.75-.87.14-.04.32-.06.51-.06.17,0,.34.02.51.06.5.15.79.47.79.88v.04h-.22v-.05c0-.44-.45-.62-.63-.67-.32-.09-.65-.08-.9,0-.38.11-.6.35-.6.66,0,.45.45.53,1.08.61.66.08,1.34.17,1.34.88,0,.43-.29.76-.78.91-.17.05-.33.07-.49.07" fill="#002c58"/>
  <path d="m1.61,1.54c-.45,0-.76.02-.93.07,0,0-.01,0-.02,0-.29.06-.47.23-.52.51-.07.35.34.77.34.77.02.02,2.51,2.13,2.74,2.33.24.21.57.32.76.24.08-.04.14-.07.18-.11-.07.02-.14.04-.22.04-.16,0-.29-.05-.42-.15-.47-.37-1.01-1.46-1.09-1.67l-.04-.08c-.14-.33-.34-.78-.23-1.37.06-.27.14-.47.19-.56-.13-.01-.42-.03-.74-.03" fill="#008ccf"/>
  <path d="m1.69,1.38c.3,0,.58.01.73.03h.09c.36.04.85.09,1.31.49.21.18.34.36.39.44.14-.22.69-1.09.78-1.47,0,0,0-.01,0-.02.09-.28.03-.52-.18-.7-.1-.09-.25-.14-.45-.14s-.39.05-.39.05c-.03,0-3.1,1.11-3.38,1.21C.32,1.36.03,1.57,0,1.81c0,.08,0,.15,0,.21.04-.19.17-.39.42-.5.31-.11.85-.14,1.26-.14" fill="#f39800"/>
  <path d="m2.57,3.57c.11.22.6,1.15.88,1.41h.01c.05.07.22.25.48.25.07,0,.14-.01.22-.04.34-.11.5-.68.5-.68,0-.03.6-3.24.65-3.53.06-.28.01-.63-.17-.78-.06-.05-.13-.08-.19-.1.14.14.26.34.22.61-.09.59-.77,1.6-.9,1.78l-.05.07c-.22.29-.51.7-1.08.88-.25.09-.47.11-.57.11" fill="#002c58"/>
</svg>