<?xml version="1.0" encoding="UTF-8"?>
<svg id="Layer_1" data-name="Layer 1" xmlns="http://www.w3.org/2000/svg" viewBox="0 0 44.73 10.72">
  <path d="m25.94,5.71c0-1.06-.45-1.99-1.99-1.99-.79,0-1.41.22-1.75.42l.25.85c.31-.2.81-.36,1.28-.36.78,0,.9.44.9.72v.07c-1.69,0-2.77.58-2.77,1.78,0,.73.54,1.41,1.49,1.41.58,0,1.07-.23,1.36-.6h.03s.19.81,1.26.5c-.05-.34-.07-.69-.07-1.13v-1.66Zm-1.26,1.12c0,.09,0,.17-.03.25-.1.33-.43.6-.85.6-.35,0-.63-.2-.63-.62,0-.64.71-.82,1.52-.81" fill="#0071ce"/>
  <path d="m0,2.27s1.11,4.53,1.28,5.26c.21.86.58,1.17,1.65.96l.69-2.81c.17-.7.29-1.19.41-1.9h.02c.08.72.19,1.21.33,1.91,0,0,.28,1.28.43,1.94.14.67.54,1.09,1.59.86l1.65-6.22h-1.33l-.57,2.69c-.15.78-.29,1.39-.39,2.11h-.02c-.1-.71-.22-1.3-.37-2.06l-.59-2.74h-1.39l-.62,2.67c-.18.82-.34,1.47-.45,2.16h-.02c-.11-.65-.25-1.48-.41-2.26,0,0-.37-1.91-.5-2.57" fill="#0071ce"/>
  <path d="m11.76,5.71c0-1.06-.45-1.99-1.99-1.99-.78,0-1.41.22-1.75.42l.25.85c.31-.2.81-.36,1.28-.36.78,0,.9.44.9.72v.07c-1.69,0-2.77.58-2.77,1.78,0,.73.55,1.41,1.49,1.41.59,0,1.07-.23,1.36-.6h.03s.19.81,1.26.5c-.05-.34-.07-.69-.07-1.13v-1.66Zm-1.27,1.12c0,.09,0,.17-.03.25-.1.33-.44.6-.86.6-.35,0-.63-.2-.63-.62,0-.64.71-.82,1.52-.81" fill="#0071ce"/>
  <polygon points="12.45 2.27 12.45 8.49 13.71 8.49 13.71 7.17 13.71 2.27 12.45 2.27" fill="#0071ce"/>
  <path d="m29.82,2.27v4.59c0,.63.12,1.08.37,1.35.22.24.59.39,1.03.39.38,0,.74-.07.92-.14l-.02-.99c-.13.03-.28.06-.48.06-.43,0-.57-.27-.57-.84v-1.76h1.1v-1.19h-1.1v-1.47" fill="#0071ce"/>
  <path d="m26.55,3.82v4.68h1.31v-2.39c0-.13,0-.24.03-.34.1-.5.48-.82,1.03-.82.15,0,.26.02.37.04v-1.23c-.1-.02-.16-.03-.28-.03-.49,0-1.04.31-1.28.99h-.03v-.88" fill="#0071ce"/>
  <path d="m14.45,3.82v4.68h1.27v-2.74c0-.13.01-.26.06-.38.1-.28.36-.6.77-.6.51,0,.76.43.76,1.06v2.67h1.27v-2.78c0-.12.02-.27.05-.38.1-.32.38-.57.77-.57.52,0,.77.42.77,1.16v2.56h1.27v-2.76c0-1.45-.74-2.02-1.57-2.02-.37,0-.66.09-.92.25-.22.14-.42.33-.59.58h-.02c-.2-.5-.67-.83-1.29-.83-.79,0-1.15.4-1.36.74h-.02v-.63" fill="#0071ce"/>
  <path d="m39.02,3.61c.25,0,.46-.13.49-.3l.25-2.81c0-.28-.33-.51-.74-.51s-.74.23-.74.51l.25,2.81c.03.17.24.3.49.3" fill="#ffc220"/>
  <path d="m37.5,4.49c.12-.22.12-.46-.02-.57l-2.31-1.62c-.24-.14-.6.03-.81.38-.21.35-.16.75.07.89l2.56,1.19c.16.06.38-.05.5-.27" fill="#ffc220"/>
  <path d="m40.54,4.49c.13.22.35.33.5.27l2.56-1.19c.24-.14.27-.53.07-.89-.21-.35-.57-.52-.81-.38l-2.31,1.62c-.13.11-.14.35-.01.57" fill="#ffc220"/>
  <path d="m39.02,7.12c.25,0,.46.13.49.3l.25,2.81c0,.28-.33.5-.74.5s-.74-.23-.74-.5l.25-2.81c.03-.17.24-.3.49-.3" fill="#ffc220"/>
  <path d="m40.54,6.24c.13-.22.35-.33.5-.27l2.56,1.19c.24.14.27.53.07.89-.21.35-.57.52-.81.38l-2.31-1.62c-.13-.11-.14-.35-.01-.57" fill="#ffc220"/>
  <path d="m37.5,6.24c.12.22.12.46-.02.57l-2.31,1.62c-.24.14-.6-.03-.81-.38-.21-.35-.16-.75.07-.89l2.56-1.19c.16-.06.38.05.5.27" fill="#ffc220"/>
  <path d="m44.36,8.18h.03s.06.01.07.05c0,.04.01.06.02.08h.08s-.02-.03-.02-.08c0-.04-.03-.07-.06-.07h0s.07-.04.07-.08c0-.03-.01-.05-.03-.07-.03-.01-.05-.02-.11-.02-.05,0-.09,0-.12.01v.31h.07v-.12Zm0-.14h.04s.07.02.07.04c0,.03-.03.05-.07.05h-.03v-.09Zm.05-.21c-.18,0-.32.14-.32.31s.14.32.32.32.32-.14.32-.32-.14-.31-.32-.31m0,.06c.14,0,.24.11.24.25s-.1.25-.24.25c-.14,0-.24-.11-.24-.25s.1-.25.24-.25" fill="#ffc220"/>
</svg>